<?xml version="1.0" standalone="no"?><!DOCTYPE svg PUBLIC "-//W3C//DTD SVG 1.1//EN" "http://www.w3.org/Graphics/SVG/1.1/DTD/svg11.dtd"><svg t="1624260426382" class="icon" viewBox="0 0 1024 1024" version="1.1" xmlns="http://www.w3.org/2000/svg" p-id="1629" width="100" height="100" xmlns:xlink="http://www.w3.org/1999/xlink"><defs><style type="text/css"></style></defs><path d="M666.67161219 94.87289187h-414.95705906c-69.73032281 0-126.45282469 56.72250187-126.45282469 126.45282563v583.78339406c0 69.73032281 56.72250187 126.45186562 126.45282469 126.45186656H769.74317c69.73032281 0 126.45282469-56.72250187 126.45282469-126.45186656V311.42495L666.67161219 94.87289187z m6.69242344 89.09767219l142.64664468 134.58139406h-80.26781812c-34.40035687 0-62.37978656-27.97942969-62.37978656-62.37978656v-72.2016075z m162.61646531 621.13758844c0 36.51764063-29.70817781 66.23733094-66.23733094 66.23733094H251.71455313c-36.52915313 0-66.23733094-29.71969031-66.23733094-66.23733094v-583.783395c0-36.51764063 29.70817781-66.23733094 66.23733094-66.23733094H613.14854094v101.083785c0 67.60152656 54.99375469 122.59528031 122.59432125 122.59528032h100.23763875v426.34166062z" fill="#666666" p-id="1630"></path><path d="M691.37582281 400.35665375c-21.34552781 0-33.87079594 11.93718656-37.63432312 35.75304L612.3426875 639.33638563h-1.88128406L548.36366562 428.58263656c-6.29237344-18.81764156-18.81764156-28.22598281-37.63432406-28.22598281-17.58199969 1.27017844-30.10726688 10.67851969-37.63432406 28.22598281l-62.09677875 210.75374906h-1.88128406L369.60038656 436.10969375c-5.0337075-25.07451938-18.20557687-36.98772187-39.51656718-35.75304-20.08782 1.27017844-31.37744625 11.93718656-33.87079594 31.98951188 0 6.29237344 0.61110562 11.93718656 1.881285 16.9353975l62.09677781 263.44218656c6.25687781 22.58116969 21.93360937 33.87079594 47.04362438 33.870795 23.8158525 0 39.51656812-10.64398313 47.04362437-31.98951094l56.45196562-186.29129437 56.45196563 186.29129437c7.52705625 21.34552781 23.8158525 31.98951094 48.92490938 31.98951094 23.8158525 0 39.51656812-11.29058531 47.04362437-33.870795l60.21549375-263.44218656c1.23468281-4.99821094 1.88128406-10.64398313 1.88128406-16.93539751-2.52980437-20.05232438-13.82038969-30.7193325-33.871755-31.98951187z" fill="#666666" p-id="1631"></path></svg>