<?xml version="1.0" standalone="no"?><!DOCTYPE svg PUBLIC "-//W3C//DTD SVG 1.1//EN" "http://www.w3.org/Graphics/SVG/1.1/DTD/svg11.dtd"><svg t="1624250223248" class="icon" viewBox="0 0 1024 1024" version="1.1" xmlns="http://www.w3.org/2000/svg" p-id="2015" width="100" height="100" xmlns:xlink="http://www.w3.org/1999/xlink"><defs><style type="text/css"></style></defs><path d="M153.6 153.6m0 51.2l0 0q0 51.2-51.2 51.2l0 0q-51.2 0-51.2-51.2l0 0q0-51.2 51.2-51.2l0 0q51.2 0 51.2 51.2Z" fill="#777777" p-id="2016"></path><path d="M256 153.6m51.2 0l614.4 0q51.2 0 51.2 51.2l0 0q0 51.2-51.2 51.2l-614.4 0q-51.2 0-51.2-51.2l0 0q0-51.2 51.2-51.2Z" fill="#777777" p-id="2017"></path><path d="M256 460.8m51.2 0l614.4 0q51.2 0 51.2 51.2l0 0q0 51.2-51.2 51.2l-614.4 0q-51.2 0-51.2-51.2l0 0q0-51.2 51.2-51.2Z" fill="#777777" p-id="2018"></path><path d="M256 768m51.2 0l614.4 0q51.2 0 51.2 51.2l0 0q0 51.2-51.2 51.2l-614.4 0q-51.2 0-51.2-51.2l0 0q0-51.2 51.2-51.2Z" fill="#777777" p-id="2019"></path><path d="M153.6 460.8m0 51.2l0 0q0 51.2-51.2 51.2l0 0q-51.2 0-51.2-51.2l0 0q0-51.2 51.2-51.2l0 0q51.2 0 51.2 51.2Z" fill="#777777" p-id="2020"></path><path d="M153.6 768m0 51.2l0 0q0 51.2-51.2 51.2l0 0q-51.2 0-51.2-51.2l0 0q0-51.2 51.2-51.2l0 0q51.2 0 51.2 51.2Z" fill="#777777" p-id="2021"></path></svg>