<?xml version="1.0" standalone="no"?><!DOCTYPE svg PUBLIC "-//W3C//DTD SVG 1.1//EN" "http://www.w3.org/Graphics/SVG/1.1/DTD/svg11.dtd"><svg t="1624264517010" class="icon" viewBox="0 0 1024 1024" version="1.1" xmlns="http://www.w3.org/2000/svg" p-id="2534" width="100" height="100" xmlns:xlink="http://www.w3.org/1999/xlink"><defs><style type="text/css"></style></defs><path d="M493.0625 931.25c-8.4375-0.84375001-16.875-1.59375001-25.21875001-2.4375-63.09375001-6.75-121.78125001-26.90625001-175.21874999-61.125-93-59.53125001-154.5-142.6875-183.5625-249.375-12.28125001-45.09375001-15.9375-91.03125001-12.09375001-137.4375C106.8125 362.1875 158.09374999 264.59374999 249.5 188.5625c53.625-44.625 115.3125-72.9375 183.84375001-86.34375001 28.40625001-5.53125001 57.09375001-7.96875001 85.96874999-7.59374999 16.875 0.28125001 30.9375 12 34.21875001 28.03125001 3.28125001 16.03125001-4.6875 32.34375001-19.59375001 38.71874999-5.0625 2.15625001-11.0625 3.28125001-16.59374999 3.28125001-132.1875-0.75-250.875 70.3125-312.37500002 187.49999998-21.1875 40.3125-33.9375 83.25-37.78124999 128.71875001-8.0625 97.125 18.9375 183.5625 81.84375001 257.90625001 52.5 61.96875001 119.25 100.96875001 199.12499998 116.06249998C632 889.625 801.96875001 773.9375 846.96875001 604.8125c31.5-118.21875001 6-225.1875-72.18750002-319.40625001-8.90625001-10.6875-13.03125001-22.125-9.84374999-35.62499998 3.1875-13.5 12.09375001-21.84375001 25.40624999-25.125 13.59375001-3.375 25.21875001 0.65625001 34.40625001 11.0625 32.34375001 36.5625 57.65625001 77.625 75.65625001 123.09374999 19.5 49.40625001 29.4375 100.59375001 29.06249998 153.75-0.84375001 121.875-45.84375001 224.71875001-134.43749998 308.0625-59.15625001 55.59375001-129.5625 89.90625001-209.43750002 104.25-16.21875001 2.90625001-32.8125 3.84375001-49.21874999 5.71875001-1.59375001 0.1875-3.1875 0.46875001-4.6875 0.74999998-12.9375-0.09375001-25.78125001-0.09375001-38.625-0.09374999z" fill="#666666" p-id="2535"></path><path d="M694.0625 330.125c0 55.03125001 0.46875001 110.0625-0.09375001 165.09375001-0.46875001 45.375-19.5 82.6875-53.53124999 112.03124999-38.625 33.28125001-84.09375001 46.78125001-134.625 43.125-46.78125001-3.375-87.28125001-21.375-119.34375001-56.0625-57.1875-61.78125001-53.0625-153.28125001 9.09375001-210.1875 30.28125001-27.75 66.1875-42.84375001 106.96875001-46.59375001 38.34375001-3.46875001 74.4375 3.84375001 108.28124999 22.3125 7.40625001 4.03125001 13.125 0.5625 13.125-7.875v-242.81249998c0-19.78125001 12.375-34.6875 31.40625001-38.06250002 1.96875001-0.375 4.03125001-0.46875001 6.09374999-0.46874999h157.59375001c18.75 0 34.03125001 13.5 35.71874999 31.3125 1.78125001 19.03125001-10.6875 35.15625001-29.53125001 38.4375-2.25 0.375-4.6875 0.375-7.03124999 0.375H715.90625001c-14.25 0-21.84375001 7.59375001-21.84375001 21.9375V330.125zM416.1875 494.375c0.375 23.53125001 10.40625001 43.125 28.03125001 58.78125001 39.375 34.875 103.5 37.125 145.40624999 5.25 43.96875001-33.46875001 45.9375-89.8125 4.3125-125.53125001-41.25-35.4375-110.4375-34.40625001-150.46875001 2.4375-17.15625001 15.65625001-27 34.96875001-27.28124999 59.0625z" fill="#666666" p-id="2536"></path></svg>