<?xml version="1.0" standalone="no"?><!DOCTYPE svg PUBLIC "-//W3C//DTD SVG 1.1//EN" "http://www.w3.org/Graphics/SVG/1.1/DTD/svg11.dtd"><svg t="1624539893952" class="icon" viewBox="0 0 1024 1024" version="1.1" xmlns="http://www.w3.org/2000/svg" p-id="3325" width="100" height="100" xmlns:xlink="http://www.w3.org/1999/xlink"><defs><style type="text/css"></style></defs><path d="M821.802667 127.786667v162.901333h-68.693334v-93.44H321.792l287.402667 309.973333-285.013334 294.186667h414.378667l0.042667-129.024c0-4.693333 3.797333-8.448 8.448-8.448h51.84c4.650667 0 8.448 3.797333 8.448 8.448v190.08c0 4.693333-3.797333 8.448-8.448 8.448H180.693333a8.448 8.448 0 0 1-6.058666-14.336l339.413333-350.421333-350.848-378.368h658.602667z" fill="#888888" p-id="3326"></path><path d="M835.2 122.752v173.013333c0 4.693333-3.797333 8.448-8.448 8.448h-78.549333a8.448 8.448 0 0 1-8.448-8.448V210.773333H352.597333l270.805334 292.010667c3.157333 3.413333 2.986667 8.661333-0.426667 11.861333l-57.301333 54.4a8.448 8.448 0 0 1-12.032-0.426666L145.536 128.512a8.448 8.448 0 0 1 6.186667-14.165333h674.986666c4.693333 0 8.490667 3.754667 8.490667 8.448z" fill="#888888" p-id="3327"></path></svg>