<?xml version="1.0" standalone="no"?><!DOCTYPE svg PUBLIC "-//W3C//DTD SVG 1.1//EN" "http://www.w3.org/Graphics/SVG/1.1/DTD/svg11.dtd"><svg t="1624073243151" class="icon" viewBox="0 0 1024 1024" version="1.1" xmlns="http://www.w3.org/2000/svg" p-id="13950" width="100" height="100" xmlns:xlink="http://www.w3.org/1999/xlink"><defs><style type="text/css"></style></defs><path d="M511.01 932c-231.6 0-420-188.4-420-420s188.43-420 420-420c231.57 0 420 188.4 420 420S742.61 932 511.01 932zM511.01 152c-198.51 0-360 161.49-360 360 0 198.51 161.49 360 360 360 198.51 0 360-161.49 360-360C871.01 313.49 709.52 152 511.01 152z" p-id="13951" fill="#666666"></path><path d="M512 757.01c-83.61 0-161.16-37.8-212.73-103.71-10.2-13.05-7.92-31.89 5.13-42.09 13.02-10.23 31.89-7.95 42.12 5.13 40.11 51.27 100.44 80.67 165.48 80.67 65.73 0 126.45-29.91 166.56-82.08 10.11-13.14 28.92-15.63 42.06-5.52 13.14 10.11 15.63 28.95 5.52 42.06C674.57 718.55 596.51 757.01 512 757.01z" p-id="13952" fill="#666666"></path><path d="M377 515c-24.87 0-45-20.13-45-45l0-60c0-24.87 20.13-45 45-45s45 20.13 45 45l0 60C422 494.84 401.84 515 377 515z" p-id="13953" fill="#666666"></path><path d="M647 515c-24.84 0-45-20.13-45-45l0-60c0-24.87 20.16-45 45-45s45 20.13 45 45l0 60C692 494.84 671.84 515 647 515z" p-id="13954" fill="#666666"></path></svg>