<?xml version="1.0" standalone="no"?><!DOCTYPE svg PUBLIC "-//W3C//DTD SVG 1.1//EN" "http://www.w3.org/Graphics/SVG/1.1/DTD/svg11.dtd"><svg t="1624262694541" class="icon" viewBox="0 0 1024 1024" version="1.1" xmlns="http://www.w3.org/2000/svg" p-id="1996" width="100" height="100" xmlns:xlink="http://www.w3.org/1999/xlink"><defs><style type="text/css"></style></defs><path d="M90.45333333 427.30666667v98.45333333l450.24-450.24h-98.45333333zM939.94666667 353.28v-98.45333333L269.76 925.01333333h98.45333333zM766.4 75.52h-98.45333333L90.45333333 653.01333333v98.45333334zM865.6 103.57333333L118.50666667 850.66666667c13.01333333 19.52 29.97333333 36.05333333 49.81333333 48.64L914.13333333 153.38666667c-12.48-19.84-29.12-36.8-48.53333333-49.81333334zM721.06666667 925.01333333h51.94666666c92.05333333 0 166.82666667-74.88 166.82666667-166.82666666V706.13333333L721.06666667 925.01333333zM939.94666667 578.88v-98.34666667L495.46666667 925.01333333h98.34666666zM314.98666667 75.52h-57.70666667c-92.05333333 0-166.82666667 74.88-166.82666667 166.82666667v57.70666666l224.53333334-224.53333333z" p-id="1997" fill="#666666"></path></svg>