<?xml version="1.0" standalone="no"?><!DOCTYPE svg PUBLIC "-//W3C//DTD SVG 1.1//EN" "http://www.w3.org/Graphics/SVG/1.1/DTD/svg11.dtd"><svg t="1624259544683" class="icon" viewBox="0 0 1024 1024" version="1.1" xmlns="http://www.w3.org/2000/svg" p-id="1598" width="100" height="100" xmlns:xlink="http://www.w3.org/1999/xlink"><defs><style type="text/css"></style></defs><path d="M747.26 803.9A440.16 440.16 0 0 1 79.22 512a439.26 439.26 0 0 1 133.62-242.64L87.68 144.32l56.58-56.58 792 792-56.64 56.52-132.36-132.36zM269.42 326A358.62 358.62 0 0 0 160.94 512a360.18 360.18 0 0 0 528 233.52L607.82 664.4A180 180 0 0 1 359.6 416.18L269.42 326z m279.12 279.12L418.88 475.46a100.02 100.02 0 0 0 129.6 129.6l0.06 0.06z m315.72 90.6l-57.24-57.24A357.42 357.42 0 0 0 863.06 512a360.18 360.18 0 0 0-448.98-266.46L350.96 182.42A440.16 440.16 0 0 1 944.78 512a437.88 437.88 0 0 1-80.52 183.66zM500.9 332.24a180 180 0 0 1 190.8 190.8l-190.8-190.8z" p-id="1599" fill="#666666"></path></svg>