<?xml version="1.0" standalone="no"?><!DOCTYPE svg PUBLIC "-//W3C//DTD SVG 1.1//EN" "http://www.w3.org/Graphics/SVG/1.1/DTD/svg11.dtd"><svg t="1624093849476" class="icon" viewBox="0 0 1024 1024" version="1.1" xmlns="http://www.w3.org/2000/svg" p-id="744" width="100" height="100" xmlns:xlink="http://www.w3.org/1999/xlink"><defs><style type="text/css"></style></defs><path d="M947.14648438 481.4140625L765.4765625 316.35546875c-16.5234375-14.85351563-42.97851563-14.85351563-57.83203125 3.33984375-14.85351563 16.5234375-14.85351563 42.97851563 3.33984375 57.83203125l148.62304688 135.43945313L710.984375 648.23046875c-16.5234375 14.85351563-18.19335938 41.30859375-3.33984375 57.83203125 8.26171875 8.26171875 19.77539063 13.18359375 31.37695313 13.18359375 9.93164063 0 19.77539063-3.33984375 28.03710937-11.6015625L948.81640625 542.5859375c8.26171875-8.26171875 13.18359375-18.19335938 13.18359375-29.70703125 0-11.6015625-4.921875-24.78515625-14.85351563-31.46484375z m-632.4609375-163.4765625c-14.85351563-16.5234375-41.30859375-18.19335938-57.83203125-3.33984375L75.18359375 479.83203125c-9.93164063 8.26171875-13.18359375 19.77539063-13.18359375 31.37695313 0 11.6015625 4.921875 23.11523438 13.18359375 29.70703124l181.66992188 165.14648438c8.26171875 6.59179688 18.19335938 11.6015625 28.03710937 11.6015625 11.6015625 0 23.11523438-4.921875 31.37695312-13.18359375 14.85351563-16.5234375 14.85351563-42.97851563-3.33984375-57.83203125l-148.53515624-135.43945313L313.015625 375.76953125c16.5234375-14.85351563 16.5234375-41.30859375 1.66992188-57.83203125z m287.31445312-123.83789063c-21.4453125-6.59179688-44.56054688 6.59179688-51.15234375 28.03710938L393.96289062 778.66015625c-6.59179688 21.4453125 6.59179688 44.56054688 28.03710938 51.15234375s44.56054688-6.59179688 51.15234375-28.03710938l156.88476563-556.5234375c6.6796875-23.02734375-6.59179688-46.23046875-28.03710938-51.15234375z" p-id="745" fill="#666666"></path></svg>