<?xml version="1.0" standalone="no"?><!DOCTYPE svg PUBLIC "-//W3C//DTD SVG 1.1//EN" "http://www.w3.org/Graphics/SVG/1.1/DTD/svg11.dtd"><svg t="1624284575847" class="icon" viewBox="0 0 1024 1024" version="1.1" xmlns="http://www.w3.org/2000/svg" p-id="2454" width="100" height="100" xmlns:xlink="http://www.w3.org/1999/xlink"><defs><style type="text/css"></style></defs><path d="M645.33333312 792.00000031H378.66666688c-16.00000031 0-26.66666625 10.66666687-26.66666719 26.66666625s10.66666687 26.66666625 26.66666718 26.66666719h266.66666625c16.00000031 0 26.66666625-10.66666687 26.66666719-26.66666719s-13.33333313-26.66666625-26.66666718-26.66666625zM111.99999969 591.99999969l178.66666687-144c13.33333313-13.33333313 13.33333313-31.99999969 0-45.33333282s-31.99999969-13.33333313-45.33333281 0L45.33333312 570.66666688c-13.33333313 13.33333313-13.33333313 31.99999969 0 45.33333281L245.33333375 783.99999969c13.33333313 13.33333313 34.66666688 13.33333313 45.33333281 0 13.33333313-13.33333313 13.33333313-34.66666688 0-45.33333281L111.99999969 591.99999969z m869.33333344-24l-199.99999969-168c-13.33333313-13.33333313-34.66666688-13.33333313-45.33333375 0-13.33333313 13.33333313-13.33333313 31.99999969 0 45.33333375L912.00000031 591.99999969l-178.66666687 144c-13.33333313 13.33333313-13.33333313 31.99999969 0 45.33333375s31.99999969 13.33333313 45.33333281 0l200.00000062-168c16.00000031-10.66666687 16.00000031-31.99999969 2.66666625-45.33333375zM458.66666656 231.99999969v370.66666687h-53.33333344v53.33333344h213.33333376v-53.33333344h-53.33333344V231.99999969h-106.66666688z m266.66666719-53.33333344H298.66666625v112.00000031h53.33333344V231.99999969h320.00000062v58.66666687h53.33333344V178.66666625z" p-id="2455" fill="#666666"></path></svg>