<?xml version="1.0" standalone="no"?><!DOCTYPE svg PUBLIC "-//W3C//DTD SVG 1.1//EN" "http://www.w3.org/Graphics/SVG/1.1/DTD/svg11.dtd"><svg t="1624246906740" class="icon" viewBox="0 0 1024 1024" version="1.1" xmlns="http://www.w3.org/2000/svg" p-id="1925" width="100" height="100" xmlns:xlink="http://www.w3.org/1999/xlink"><defs><style type="text/css"></style></defs><path d="M817.78642578 948.84189453h-611.57197266c-72.43505859 0-131.05283203-58.70478516-131.05283203-131.05458984v-611.57900391c0-72.35068359 58.61777344-131.05283203 131.05283203-131.05283203h611.57197266c72.3515625 0 131.05371094 58.70126953 131.05371094 131.05283203v611.578125c-0.00087891 72.3515625-58.70302734 131.05634766-131.05371094 131.05634766zM447.58583984 516.77685547c0-71.66865234-34.21494141-107.50341797-102.47080078-107.50341797-36.85869141 0-69.36240234 8.70292969-97.51904297 26.27841797v48.46201172c27.98525391-22.865625 58.95439453-34.30019531 92.99882813-34.30019531 38.22363281 0 57.2484375 23.03701172 57.2484375 69.28066406l-83.86875 11.77470703c-62.62470703 8.70292969-94.021875 39.58769531-94.021875 92.48730469 0 25.25537109 8.10263672 45.22060547 24.3149414 60.06445312 16.2984375 14.84560547 38.053125 22.35322266 65.52597657 22.35322266 38.22363281 0 67.1484375-16.89345703 86.77177734-50.51074219h1.27880859v43.85654297h49.74345704v-182.24472656zM789.97695313 446.81240234c-20.896875-25.08486328-49.14667969-37.54072266-84.63867188-37.54072265-42.66123047 0-75.08056641 18.42978516-97.26591797 55.45722656h-1.02304687v-184.80410156h-50.16533203v419.09414062h50.16533203v-39.93134765h1.02304687c19.2796875 31.05878906 47.43896484 46.58730469 84.29677734 46.58730468 38.99355469 0 70.30283203-14.16181641 93.77402344-42.49160156 23.45537109-28.15664063 35.14570313-66.20712891 35.14570313-113.98798828-0.00087891-43.34414063-10.40625-77.47119141-31.31191406-102.38466797zM684.86064453 664.21074219c-22.34794922 0-40.95351563-7.84951172-55.79560547-23.71904297-14.84912109-15.69902344-22.27236328-35.15185547-22.27236328-58.01748047v-38.39589844c0-27.13183594 8.02617187-49.48681641 23.97128906-67.06142578 15.96181641-17.57724609 36.17490234-26.27841797 60.83701172-26.27841797 24.14882812 0 43.26064453 8.87431641 57.24580078 26.44892578 14.00009766 17.74599609 20.99355469 41.46591797 20.99355469 71.32763672 0 36.17666016-7.50849609 64.50117187-22.52548828 84.97792969-15.01787109 20.47763672-35.83564453 30.71689453-62.45419922 30.71689453zM322.67568359 664.89277344c-15.78691406 0-28.32539063-4.26533203-37.9696289-12.79775391-9.55458984-8.53242188-14.24619141-19.45283203-14.24619141-32.93349609 0-15.35712891 4.26533203-27.30322266 13.13964844-35.83476563 8.78642578-8.53242188 24.74121094-14.33408203 47.95136719-17.40498047l66.2915039-9.04394531v27.13271484c0 23.20664062-7.08134766 42.49072266-21.24404297 57.84521485-14.16357422 15.35800781-32.08095703 23.03613281-53.92353515 23.03613281z" p-id="1926" fill="#666666"></path></svg>