<?xml version="1.0" standalone="no"?><!DOCTYPE svg PUBLIC "-//W3C//DTD SVG 1.1//EN" "http://www.w3.org/Graphics/SVG/1.1/DTD/svg11.dtd"><svg t="1624263845893" class="icon" viewBox="0 0 1024 1024" version="1.1" xmlns="http://www.w3.org/2000/svg" p-id="13612" width="100" height="100" xmlns:xlink="http://www.w3.org/1999/xlink"><defs><style type="text/css"></style></defs><path d="M424.619 493.796L113.323 337.237c-49.152-23.665-49.152-63.715 0-87.381L424.619 93.298a218.453 218.453 0 0 1 178.403 0L916.14 249.856c47.331 23.666 47.331 63.716 0 87.381L603.022 493.796a218.453 218.453 0 0 1-178.403 0z" p-id="13613" fill="#666666"></path><path d="M916.139 468.31l-92.843-47.332-220.274 109.226a218.453 218.453 0 0 1-178.403 0L206.165 420.978l-92.842 47.331c-49.152 23.666-49.152 63.716 0 87.382l311.296 156.558a218.453 218.453 0 0 0 178.403 0L916.14 555.69c47.331-23.666 47.331-63.716 0-87.382z" p-id="13614" fill="#666666"></path><path d="M916.139 686.763l-92.843-47.332-220.274 109.227a218.453 218.453 0 0 1-178.403 0L206.165 639.43l-92.842 47.332c-49.152 23.665-49.152 63.715 0 87.381l311.296 156.558a218.453 218.453 0 0 0 178.403 0L916.14 774.144c47.331-23.666 47.331-63.716 0-87.381z" p-id="13615" fill="#666666"></path></svg>