<?xml version="1.0" standalone="no"?><!DOCTYPE svg PUBLIC "-//W3C//DTD SVG 1.1//EN" "http://www.w3.org/Graphics/SVG/1.1/DTD/svg11.dtd"><svg t="1624252221764" class="icon" viewBox="0 0 1024 1024" version="1.1" xmlns="http://www.w3.org/2000/svg" p-id="1566" width="100" height="100" xmlns:xlink="http://www.w3.org/1999/xlink"><defs><style type="text/css"></style></defs><path d="M547.44615406 767.06461531L265.94461531 530.90461531 187.29846125 607.40923063a54.86769187 54.86769187 0 0 0 6.79384687 77.2430775L334.03076938 802.21538469a146.21538469 146.21538469 0 0 0 206.03076937-18.01846126l7.2369225-17.05846218z m-252.33230812 108.92307657a231.65538469 231.65538469 0 0 1-13.88307657-10.78153782L141.21846125 747.71692343A137.05846125 137.05846125 0 0 1 124.30769188 554.53538469l352.46769281-420.03692344a137.05846125 137.05846125 0 0 1 193.18153876-16.91076937l210.01846124 176.27076937c57.96923063 48.66461531 65.57538469 135.13846125 16.91076937 193.10769281l-293.76 350.03076937a228.92307655 228.92307655 0 0 1-42.01846218 38.99076844h222.05538469a36.92307655 36.92307655 0 0 1 36.92307749 36.9230775v8.41846125a36.92307655 36.92307655 0 0 1-36.92307751 36.9230775H171.56923062a36.92307655 36.92307655 0 0 1-36.92307656-36.9230775v-8.41846125a36.92307655 36.92307655 0 0 1 36.92307657-36.9230775h123.54461531z" p-id="1567" fill="#777777"></path></svg>