<?xml version="1.0" standalone="no"?><!DOCTYPE svg PUBLIC "-//W3C//DTD SVG 1.1//EN" "http://www.w3.org/Graphics/SVG/1.1/DTD/svg11.dtd"><svg t="1624265286876" class="icon" viewBox="0 0 1219 1024" version="1.1" xmlns="http://www.w3.org/2000/svg" p-id="2210" width="119.04296875" height="100" xmlns:xlink="http://www.w3.org/1999/xlink"><defs><style type="text/css"></style></defs><path d="M1167.95428531 235.65714313a20.57142844 20.57142844 0 0 0-15.72571406-7.36000032c-17.14285687 3.19999969-32.4571425 12.61714313-43.0171425 26.46857156l-407.13142875 432.36571407c-14.90285719 15.95428594-69.85142812 113.50857188-72.27428531 117.76000031l-8.91428625 15.81714281 14.49142875-9.73714312c3.88571438-2.51428594 94.30857187-63.1771425 109.16571468-79.13142844l407.13142782-432.36571406c18.28571437-19.33714313 31.99999969-46.2628575 16.27428562-63.81714282zM913.82857156 370.14857188a60.02285719 60.02285719 0 1 1-59.79428625-65.37142875c34.51428562 1.64571469 61.2571425 30.85714312 59.79428625 65.37142875z m-627.15428625 228.57142781a65.59999969 65.59999969 0 1 1 59.79428625-65.37142781 62.81142844 62.81142844 0 0 1-59.79428625 65.37142781z m89.55428625-228.57142781a60.02285719 60.02285719 0 1 1 59.79428532 65.37142781 62.81142844 62.81142844 0 0 1-59.79428532-65.37142781z m209.14285688-65.37142875a60.02285719 60.02285719 0 1 1 59.79428625 65.37142875 62.81142844 62.81142844 0 0 1-59.79428625-65.32571438v-0.04571437z" fill="#666666" p-id="2211"></path><path d="M1029.94285719 528.54857188c-27.79428563 192.27428531-192 387.24571406-425.37142875 387.24571406a342.85714312 342.85714312 0 0 1-130.01142844-25.73714344c-40.63999969-17.4628575-59.01714281-37.85142844-62.71999969-51.24571406-1.92-6.9028575-3.70285688-14.62857187-5.62285781-22.8571425a282.51428531 282.51428531 0 0 0-24.50285719-72.68571469 85.07428594 85.07428594 0 0 0-77.07428531-47.8171425c-9.23428594 0-18.46857187 1.23428531-27.42857156 3.51999937-14.67428531 3.6571425-29.71428562 5.53142813-44.89142813 5.66857219-30.35428594 0-81.50857125-8.59428562-83.10857156-66.19428562-7.95428531-294.30857156 218.42285719-454.12571437 446.4-481.92a433.64571469 433.64571469 0 0 1 51.24571406-2.92571438 510.49142812 510.49142812 0 0 1 184.22857125 33.69142781c16.1371425 6.99428531 31.95428531 14.85714281 47.31428625 23.45142938 28.8 15.86285719 54.5371425 36.70857188 75.97714219 61.57714219l36.57142875-68.57142844a330.51428531 330.51428531 0 0 0-81.09714281-61.34857125c-30.03428531-15.77142844-38.53714313-20.06857125-52.66285688-25.96571438a581.85142875 581.85142875 0 0 0-210.28571437-38.99428593c-19.84000031-0.04571438-39.72571406 1.05142875-59.42857125 3.38285718-134.4 14.5828575-260.25142875 73.1428575-357.98857125 166.53714282a519.49714312 519.49714312 0 0 0-151.54285781 393.14285718c-0.41142844 41.14285687 17.73714281 80.27428594 49.37142843 106.56a164.02285688 164.02285688 0 0 0 105.14285719 33.55428563 260.57142844 260.57142844 0 0 0 60.70857188-7.58857125c3.79428563-0.96 7.68-1.50857156 11.56571437-1.59999938 13.71428531 0 20.57142844 12.93714281 32.4571425 63.03999938 2.01142875 8.41142812 4.0228575 17.0971425 6.35428594 25.50857156a166.81142812 166.81142812 0 0 0 104.54857125 100.34285719c49.64571469 20.57142844 102.85714313 31.13142844 156.57142875 31.26857156a469.57714313 469.57714313 0 0 0 188.16-38.90285719 494.44571438 494.44571438 0 0 0 151.77142875-103.4971425c43.42857188-43.10857125 79.26857156-93.25714312 106.01142844-148.29714375a538.46857125 538.46857125 0 0 0 52.43428593-183.08571375v-1.92c0.31999969-3.0628575 0.54857156-5.98857187 0.63999938-9.14285718l-73.87428563 21.43999968 0.13714313 0.365715z" fill="#666666" p-id="2212"></path></svg>