<?xml version="1.0" standalone="no"?><!DOCTYPE svg PUBLIC "-//W3C//DTD SVG 1.1//EN" "http://www.w3.org/Graphics/SVG/1.1/DTD/svg11.dtd"><svg t="1624540086612" class="icon" viewBox="0 0 1024 1024" version="1.1" xmlns="http://www.w3.org/2000/svg" p-id="4560" width="100" height="100" xmlns:xlink="http://www.w3.org/1999/xlink"><defs><style type="text/css"></style></defs><path d="M793.390625 90.125H230.609375C152.140625 90.125 90.125 152.140625 90.125 230.609375v562.359375C90.125 871.859375 152.140625 933.875 230.609375 933.875h562.359375c78.890625 0 140.484375-62.015625 140.484375-140.484375V230.609375C933.875 152.140625 871.859375 90.125 793.390625 90.125z m84.375 703.265625c0 45.140625-39.234375 84.375-84.375 84.375H230.609375c-45.140625 0-84.375-39.234375-84.375-84.375V230.609375c0-45.140625 39.234375-84.375 84.375-84.375h562.359375c45.140625 0 84.375 39.234375 84.375 84.375l0.421875 562.78125z" p-id="4561" fill="#888888"></path><path d="M250.4375 812.796875l163.265625-163.265625v101.25c0 16.875 11.390625 28.265625 28.265625 28.265625s28.265625-11.390625 28.265625-28.265625v-168.75c0-16.875-11.390625-28.265625-28.265625-28.265625h-168.75c-16.875 0-28.265625 11.390625-28.265625 28.265625s11.390625 28.265625 28.265625 28.265625h101.25L211.203125 773.5625c-11.390625 11.390625-11.390625 28.265625 0 39.234375 10.96875 11.390625 27.84375 11.390625 39.234375 0zM582.453125 469.8125h168.75c16.875 0 28.265625-11.390625 28.265625-28.265625s-11.390625-28.265625-28.265625-28.265625h-101.25L812.796875 250.4375c11.390625-11.390625 11.390625-28.265625 0-39.234375-11.390625-11.390625-28.265625-11.390625-39.234375 0l-163.265625 163.265625v-101.25c0-16.875-11.390625-28.265625-28.265625-28.265625s-28.265625 11.390625-28.265625 28.265625v168.75c0.421875 16.453125 11.8125 27.84375 28.6875 27.84375z" p-id="4562" fill="#888888"></path></svg>