<?xml version="1.0" standalone="no"?><!DOCTYPE svg PUBLIC "-//W3C//DTD SVG 1.1//EN" "http://www.w3.org/Graphics/SVG/1.1/DTD/svg11.dtd"><svg t="1624240878794" class="icon" viewBox="0 0 1024 1024" version="1.1" xmlns="http://www.w3.org/2000/svg" p-id="14265" width="100" height="100" xmlns:xlink="http://www.w3.org/1999/xlink"><defs><style type="text/css"></style></defs><path d="M204.453125 933.875V90.125h356.0625c39.234375 0 85.640625 24.46875 121.5 63.28125 42.1875 45.5625 65.390625 105.890625 64.96875 168.328125 0 65.390625-24.046875 123.609375-64.125 167.484375 22.359375 10.546875 44.296875 25.734375 63.703125 44.296875 46.40625 43.875 72.984375 105.46875 72.5625 169.171875 0 64.125-26.15625 125.296875-72.5625 169.171875-38.8125 37.546875-89.015625 61.59375-130.78125 62.015625H204.453125z m81.421875-81.421875h329.0625c18.984375 0 50.203125-14.765625 75.515625-38.8125 61.171875-57.796875 64.125-153.984375 6.75-215.15625-2.109375-2.109375-4.21875-4.640625-6.75-6.75-24.890625-24.046875-55.6875-38.8125-75.09375-38.8125H285.875v299.53125z m0-380.953125h275.0625c8.859375-0.84375 17.296875-3.796875 24.890625-8.015625 12.65625-6.75 25.3125-16.453125 36.703125-29.109375 28.265625-30.796875 43.875-71.296875 43.453125-113.0625 0-44.71875-16.03125-83.53125-43.453125-113.0625-10.546875-11.8125-23.203125-21.515625-36.703125-29.109375-7.59375-4.21875-16.03125-7.171875-24.46875-8.015625H285.875v300.375z" p-id="14266" fill="#666666"></path></svg>