<?xml version="1.0" standalone="no"?><!DOCTYPE svg PUBLIC "-//W3C//DTD SVG 1.1//EN" "http://www.w3.org/Graphics/SVG/1.1/DTD/svg11.dtd"><svg t="1624539906358" class="icon" viewBox="0 0 1024 1024" version="1.1" xmlns="http://www.w3.org/2000/svg" p-id="3560" width="100" height="100" xmlns:xlink="http://www.w3.org/1999/xlink"><defs><style type="text/css"></style></defs><path d="M199.06354312 50.66666666c17.76 0 32.43428531 12.75428531 35.52 29.55428532l0.54857156 6.51428625-0.06857156 84.48A432.68571469 432.68571469 0 1 1 114.10354312 323.7180951l60.13714219 42.03428625a360.61714312 360.61714312 0 1 0 117.94285781-147.42857156h75.15428531l6.44571469 0.54857156a36.06857156 36.06857156 0 0 1 0 70.97142844l-6.44571469 0.61714219H199.06354312l-6.44571469-0.61714219a36.06857156 36.06857156 0 0 1-29.00571375-29.00571469l-0.61714312-6.44571375V86.73523823c0-19.88571469 16.18285688-36.06857156 36.06857156-36.06857157z m307.81714219 242.33142844a34.28571469 34.28571469 0 0 1 34.28571468 34.28571469v182.05714219h73.85142844a34.28571469 34.28571469 0 0 1 34.28571469 34.28571468v3.56571469a34.28571469 34.28571469 0 0 1-34.28571469 34.28571375h-111.77142844a34.28571469 34.28571469 0 0 1-34.28571468-34.28571375V327.28380979a34.28571469 34.28571469 0 0 1 34.28571468-34.28571469h3.63428532z" fill="#888888" p-id="3561"></path></svg>