<?xml version="1.0" standalone="no"?><!DOCTYPE svg PUBLIC "-//W3C//DTD SVG 1.1//EN" "http://www.w3.org/Graphics/SVG/1.1/DTD/svg11.dtd"><svg t="1624421389528" class="icon" viewBox="0 0 1024 1024" version="1.1" xmlns="http://www.w3.org/2000/svg" p-id="31156" width="100" height="100" xmlns:xlink="http://www.w3.org/1999/xlink"><defs><style type="text/css"></style></defs><path d="M169.890909 794.065455a59.997091 59.997091 0 1 0 119.994182 0 59.997091 59.997091 0 0 0-119.994182 0z" p-id="31157" fill="#666666"></path><path d="M229.794909 962.001455c-43.008 0-86.016-16.290909-118.690909-49.105455a168.354909 168.354909 0 0 1 0.186182-237.800727c0.325818-0.279273 0.605091-0.605091 0.930909-0.791273L457.681455 355.607273a255.488 255.488 0 0 1 6.097454-107.613091 254.138182 254.138182 0 0 1 314.414546-175.988364A30.021818 30.021818 0 0 1 791.272727 121.949091l-45.335272 45.288727a78.568727 78.568727 0 0 0 0 111.010909c14.708364 14.708364 34.443636 22.900364 55.528727 22.900364 21.085091 0 40.773818-8.098909 55.482182-22.900364l45.288727-45.288727a29.835636 29.835636 0 0 1 49.989818 13.032727 254.138182 254.138182 0 0 1-64.465454 249.250909 253.44 253.44 0 0 1-219.136 71.214546l-318.836364 345.274182a167.842909 167.842909 0 0 1-119.901091 50.176z m-76.474182-244.084364a107.52 107.52 0 0 0-31.185454 76.194909 107.147636 107.147636 0 0 0 107.752727 107.799273c28.811636 0 55.854545-11.124364 76.194909-31.185455l329.634909-357.329454a30.114909 30.114909 0 0 1 28.765091-8.890182 193.442909 193.442909 0 0 0 180.689455-51.665455 193.815273 193.815273 0 0 0 56.738909-134.842182l-2.699637 2.699637a137.309091 137.309091 0 0 1-97.931636 40.401454c-37.096727 0-71.866182-14.429091-97.885091-40.401454a138.705455 138.705455 0 0 1 0-195.909818l2.699636-2.699637a193.861818 193.861818 0 0 0-184.506181 141.824c-8.564364 31.092364-9.309091 64.186182-2.001455 95.604364a30.114909 30.114909 0 0 1-8.843636 28.765091l-357.469091 329.634909z" p-id="31158" fill="#666666"></path><path d="M842.193455 955.997091a115.618909 115.618909 0 0 1-82.013091-33.885091l-240.500364-240.500364a29.975273 29.975273 0 0 1-0.791273-41.611636l116.736-126.603636a29.742545 29.742545 0 0 1 43.194182-0.930909l245.387636 245.434181c21.783273 21.783273 33.885091 51.013818 33.885091 82.013091 0 31.092364-12.008727 60.183273-33.885091 81.966546l-21.224727-20.945455 21.224727 21.178182a115.618909 115.618909 0 0 1-82.01309 33.885091z m-259.723637-296.401455l220.16 220.113455a56.133818 56.133818 0 0 0 79.127273 0c10.565818-10.519273 16.337455-24.622545 16.337454-39.610182 0-14.987636-5.818182-29.090909-16.290909-39.563636L658.525091 577.163636l-76.008727 82.385455zM190.324364 273.594182c-21.876364 0-43.752727-8.285091-60.509091-24.994909L74.333091 193.117091a29.975273 29.975273 0 0 1 0-42.402909L152.808727 72.145455a29.975273 29.975273 0 0 1 42.356364 0l55.528727 55.528727a85.643636 85.643636 0 0 1 0 120.878545 84.992 84.992 0 0 1-60.416 24.994909zM137.914182 171.892364l34.304 34.304c9.867636 9.914182 26.065455 9.914182 36.072727 0a25.646545 25.646545 0 0 0 0-36.119273l-34.304-34.257455-36.072727 36.072728z" p-id="31159" fill="#666666"></path><path d="M426.496 454.423273a29.602909 29.602909 0 0 1-21.178182-8.843637L208.290909 248.599273a29.975273 29.975273 0 0 1 42.402909-42.356364L447.767273 403.176727a29.975273 29.975273 0 0 1-21.224728 51.2z" p-id="31160" fill="#666666"></path></svg>