<?xml version="1.0" standalone="no"?><!DOCTYPE svg PUBLIC "-//W3C//DTD SVG 1.1//EN" "http://www.w3.org/Graphics/SVG/1.1/DTD/svg11.dtd"><svg t="1624263054236" class="icon" viewBox="0 0 1024 1024" version="1.1" xmlns="http://www.w3.org/2000/svg" p-id="1966" width="100" height="100" xmlns:xlink="http://www.w3.org/1999/xlink"><defs><style type="text/css"></style></defs><path d="M758.272 445.44c36.864 0 66.56 29.696 66.56 66.56v310.272c0 36.864-29.696 66.56-66.56 66.56H270.848c-36.864 0-66.56-29.696-66.56-66.56V512c0-36.864 29.696-66.56 66.56-66.56h487.424m0-66.048H270.848c-73.216 0-133.12 59.392-133.12 133.12v310.272c0 73.216 59.392 132.608 133.12 132.608h487.424c73.216 0 133.12-59.392 133.12-132.608V512c0-73.216-59.392-132.608-133.12-132.608z m-243.712-243.712c85.504 0 155.136 69.632 155.136 155.136v88.576H359.936V290.816c0-86.016 69.12-155.136 154.624-155.136m0.512-66.56c-122.368 0-221.696 99.328-221.696 221.696V445.44h442.88V290.816c0-122.368-99.328-221.696-221.184-221.696z m0 697.856c-18.432 0-33.28-14.848-33.28-33.28v-133.12c0-18.432 14.848-33.28 33.28-33.28s33.28 14.848 33.28 33.28v132.608c0 18.944-14.848 33.792-33.28 33.792z" p-id="1967" fill="#666666"></path></svg>