<?xml version="1.0" standalone="no"?><!DOCTYPE svg PUBLIC "-//W3C//DTD SVG 1.1//EN" "http://www.w3.org/Graphics/SVG/1.1/DTD/svg11.dtd"><svg t="1624252227030" class="icon" viewBox="0 0 1024 1024" version="1.1" xmlns="http://www.w3.org/2000/svg" p-id="1800" width="100" height="100" xmlns:xlink="http://www.w3.org/1999/xlink"><defs><style type="text/css"></style></defs><path d="M876.77155555 147.22844445c-96.256-96.256-252.01777778-96.256-348.16 0l-110.25066666 110.25066666 58.02666666 58.02666667 110.25066667-110.25066667c61.21244445-61.21244445 164.52266667-67.69777778 232.10666667 0 67.69777778 67.69777778 61.21244445 170.89422222 0 232.10666667l-110.25066667 110.25066667 58.14044445 58.14044444 110.25066666-110.25066667c96.02844445-96.256 96.02844445-252.01777778-0.11377778-348.27377777zM437.47555555 818.74488889c-61.21244445 61.21244445-164.52266667 67.69777778-232.10666666 0-67.69777778-67.69777778-61.21244445-170.89422222 0-232.10666667l110.25066666-110.25066667-58.14044444-58.14044444-110.25066666 110.25066667c-96.256 96.256-96.256 252.01777778 0 348.16s252.01777778 96.256 348.16 0l110.25066666-110.25066667-58.02666666-58.02666666-110.1368889 110.36444444zM225.62133333 167.70844445c-3.52711111-3.52711111-9.32977778-3.52711111-12.85688888 0L167.70844445 212.76444445c-3.52711111 3.52711111-3.52711111 9.32977778 0 12.85688888l630.784 630.784c3.52711111 3.52711111 9.32977778 3.52711111 12.85688888 0l45.056-45.056c3.52711111-3.52711111 3.52711111-9.32977778 0-12.85688888L225.62133333 167.70844445z" p-id="1801" fill="#777777"></path></svg>