<?xml version="1.0" standalone="no"?><!DOCTYPE svg PUBLIC "-//W3C//DTD SVG 1.1//EN" "http://www.w3.org/Graphics/SVG/1.1/DTD/svg11.dtd"><svg t="1624247309797" class="icon" viewBox="0 0 1024 1024" version="1.1" xmlns="http://www.w3.org/2000/svg" p-id="1634" width="100" height="100" xmlns:xlink="http://www.w3.org/1999/xlink"><defs><style type="text/css"></style></defs><path d="M705.79882813 820.49609375c19.77539063 0 35.59570313 15.8203125 35.59570312 35.59570313s-15.8203125 35.59570313-35.59570313 35.59570312H318.20117187c-19.77539063 0-35.59570313-15.8203125-35.59570312-35.59570313s15.8203125-35.59570313 35.59570313-35.59570312h387.59765624z m166.11328124-229.39453125c19.77539063 0 35.59570313 15.8203125 35.59570313 35.59570313s-15.8203125 35.59570313-35.59570312 35.59570312H152.08789062c-19.77539063 0-35.59570313-15.8203125-35.59570312-35.59570313s15.8203125-35.59570313 35.59570313-35.59570312h719.82421875z m-166.11328124-229.39453125c19.77539063 0 35.59570313 15.8203125 35.59570312 35.59570313s-15.8203125 35.59570313-35.59570313 35.59570312H318.20117187c-19.77539063 0-35.59570313-15.8203125-35.59570312-35.59570313s15.8203125-35.59570313 35.59570313-35.59570312h387.59765624z m166.11328124-229.39453125c19.77539063 0 35.59570313 15.8203125 35.59570313 35.59570313s-15.8203125 35.59570313-35.59570312 35.59570312H152.08789062c-19.77539063 0-35.59570313-15.8203125-35.59570312-35.59570313s15.8203125-35.59570313 35.59570313-35.59570312h719.82421875z" p-id="1635" fill="#666666"></path></svg>