<?xml version="1.0" standalone="no"?><!DOCTYPE svg PUBLIC "-//W3C//DTD SVG 1.1//EN" "http://www.w3.org/Graphics/SVG/1.1/DTD/svg11.dtd"><svg t="1624261683338" class="icon" viewBox="0 0 1024 1024" version="1.1" xmlns="http://www.w3.org/2000/svg" p-id="1721" width="100" height="100" xmlns:xlink="http://www.w3.org/1999/xlink"><defs><style type="text/css"></style></defs><path d="M831.76106667 648.53333333c40.09528853 0 72.54471147 32.44942187 72.54471146 72.54471147v191.96586667a8.55608853 8.55608853 0 0 1-8.5560896 8.55608853H836.03911147a8.55608853 8.55608853 0 0 1-8.5560896-8.55608853v-187.73333334H196.56248853v187.73333334A8.55608853 8.55608853 0 0 1 187.96088853 921.6H128.2048a8.55608853 8.55608853 0 0 1-8.51057813-8.55608853v-191.96586667c0-40.1408 32.44942187-72.54471147 72.54471146-72.54471147h639.52213334zM153.8275552 473.58862187c3.77742187 0 6.9632 2.4576 8.10097813 5.87093333l0.45511147 2.68515627v59.71057706a8.55608853 8.55608853 0 0 1-5.87093333 8.10097814l-2.68515627 0.45511146H94.07146667a8.55608853 8.55608853 0 0 1-8.05546667-5.87093333l-0.45511147-2.68515627v-59.71057706c0-3.77742187 2.4576-6.9632 5.82542294-8.10097814l2.73066666-0.45511146H153.8275552z m194.3324448 0c3.73191147 0 6.9632 2.4576 8.10097813 5.87093333l0.4551104 2.68515627v59.71057706a8.55608853 8.55608853 0 0 1-5.87093333 8.10097814l-2.6851552 0.45511146H288.40391147a8.55608853 8.55608853 0 0 1-8.05546667-5.87093333l-0.45511147-2.68515627v-59.71057706c0-3.77742187 2.4576-6.9632 5.82542187-8.10097814l2.73066667-0.45511146H348.16z m387.2995552 0c3.73191147 0 6.9632 2.4576 8.10097813 5.87093333l0.45511147 2.68515627v59.71057706a8.55608853 8.55608853 0 0 1-5.87093333 8.10097814l-2.68515627 0.45511146h-59.75608853a8.55608853 8.55608853 0 0 1-8.05546667-5.87093333l-0.45511147-2.68515627v-59.71057706c0-3.77742187 2.4576-6.9632 5.82542294-8.10097814l2.73066666-0.45511146h59.71057707z m194.3324448 0c3.73191147 0 6.9632 2.4576 8.10097813 5.87093333l0.4551104 2.68515627v59.71057706a8.55608853 8.55608853 0 0 1-5.87093333 8.10097814l-2.6851552 0.45511146h-59.75608853a8.55608853 8.55608853 0 0 1-8.05546667-5.87093333l-0.45511147-2.68515627v-59.71057706c0-3.77742187 2.4576-6.9632 5.82542187-8.10097814l2.73066667-0.45511146h59.71057813z m-387.93671147 0c3.77742187 0 6.9632 2.4576 8.10097814 5.87093333l0.45511146 2.68515627v59.71057706a8.55608853 8.55608853 0 0 1-5.87093333 8.10097814l-2.68515627 0.45511146h-59.71057706a8.55608853 8.55608853 0 0 1-8.10097814-5.87093333l-0.45511146-2.68515627v-59.71057706c0-3.77742187 2.4576-6.9632 5.87093333-8.10097814l2.68515627-0.45511146h59.71057706zM187.96088853 102.4c3.77742187 0 6.9632 2.4576 8.10097814 5.82542187l0.45511146 2.73066666v187.68782294h631.0115552V110.95608853c0-3.73191147 2.41208853-6.91768853 5.82542187-8.05546666L836.03911147 102.4h59.75608853c3.73191147 0 6.91768853 2.4576 8.05546667 5.82542187l0.45511146 2.73066666v191.96586667c0 37.9107552-28.94506667 68.90382187-65.9456 72.22613333L831.76106667 375.46666667H192.23893333a72.45368853 72.45368853 0 0 1-72.22613333-65.9456l-0.31857813-6.59911147V110.95608853c0-3.77742187 2.4576-7.00871147 5.82542293-8.10097706l2.73066667-0.45511147H187.96088853z" fill="#666666" p-id="1722"></path></svg>