<?xml version="1.0" standalone="no"?><!DOCTYPE svg PUBLIC "-//W3C//DTD SVG 1.1//EN" "http://www.w3.org/Graphics/SVG/1.1/DTD/svg11.dtd"><svg t="1624073549075" class="icon" viewBox="0 0 1024 1024" version="1.1" xmlns="http://www.w3.org/2000/svg" p-id="29977" width="100" height="100" xmlns:xlink="http://www.w3.org/1999/xlink"><defs><style type="text/css"></style></defs><path d="M867.26315811 249.99342136c-42.1875-42.1875-97.69736838-64.39144703-157.64802649-64.39144785s-115.46052649 22.20394702-157.64802649 64.39144785L321.04605298 480.91447351c-55.50986838 55.50986838-55.50986838 144.32565811-1e-8 197.61513162s144.32565811 55.50986838 197.61513163 0l155.4276308-155.42763162c11.10197351-11.10197351 11.10197351-31.08552649 0-44.40789487-11.10197351-11.10197351-31.08552649-11.10197351-44.40789404 0l-155.42763162 155.42763162c-31.08552649 31.08552649-79.93421026 31.08552649-111.01973677 1e-8s-31.08552649-79.93421026 0-111.01973676L596.375 292.18092136c62.17105297-62.17105297 164.30921026-62.17105297 226.48026324 0 31.08552649 31.08552649 46.62828974 71.05263162 46.62828973 113.24013161s-17.76315811 84.375-46.62828972 113.24013163L563.06907864 780.66776324c-42.1875 42.1875-99.91776325 66.61184189-162.0888154 66.61184189s-117.68092136-24.42434189-162.08881622-66.61184188l-19.98355215-19.98355298c-88.81578974-88.81578974-88.81578974-235.36184189 0-324.17763163L492.01644702 165.61842136c11.10197351-11.10197351 11.10197351-31.08552649 0-44.40789487-11.10197351-11.10197351-31.08552649-11.10197351-44.40789404 0L176.72039487 394.31907864C121.21052649 449.82894703 92.34539487 523.10197351 92.34539487 598.59539487s31.08552649 150.98684189 84.375 204.27631539l19.98355215 19.98355298c55.50986838 55.50986838 131.00328974 84.375 204.27631622 84.375s148.76644702-28.86513162 204.2763154-84.375l270.88815811-270.88815811 2.22039487-2.22039487v-2.22039486c75.49342136-86.59539487 71.05263162-217.5986846-11.10197351-297.53289404z" p-id="29978" fill="#666666"></path></svg>