<?xml version="1.0" standalone="no"?><!DOCTYPE svg PUBLIC "-//W3C//DTD SVG 1.1//EN" "http://www.w3.org/Graphics/SVG/1.1/DTD/svg11.dtd"><svg t="1635843793741" class="icon" viewBox="0 0 1024 1024" version="1.1" xmlns="http://www.w3.org/2000/svg" p-id="7077" width="64" height="64" xmlns:xlink="http://www.w3.org/1999/xlink"><defs><style type="text/css"></style></defs><path d="M686.68261719 365.25012207c1.73034668 9.80529786 2.55432129 19.85778809 2.55432128 30.15747071 0 97.88818359-79.43115234 177.31933594-177.31933594 177.31933593s-177.31933594-79.43115234-177.31933592-177.31933593c0-12.85400391 1.40075684-25.29602051 3.95507812-37.40844728L139.56347657 233.24938964v612.62512208c0 48.61450195 39.38598633 88.00048828 88.00048827 88.00048828h568.78967286c48.61450195 0 88.00048828-39.38598633 88.00048828-88.00048828V251.29443359L686.68261719 365.25012207z m0 0" fill="#FF623E" p-id="7078"></path><path d="M796.43603516 90.125H227.56396484c-47.79052734 0-86.59973145 38.15002442-87.83569336 85.61096192l216.2109375 135.46142577c29.99267578-55.45349122 88.65966797-93.10913086 156.06079102-93.10913085 70.0378418 0 130.59997559 40.62194825 159.43908692 99.61853027l212.99743653-122.7722168v-16.72668457C884.35412598 129.51098633 845.05053711 90.125 796.43603516 90.125z m0 0" fill="#FF623E" p-id="7079"></path><path d="M597.36376953 434.54638672h-58.09020996v-17.38586426h58.09020996c13.76037598 0 24.88403321-11.12365723 24.8840332-24.8840332s-11.12365723-24.88403321-24.8840332-24.88403321h-34.68933106l31.31103516-34.27734374c4.44946289-4.8614502 6.83898926-11.28845215 6.50939942-17.88024904-0.32958985-6.59179689-3.21350098-12.77160645-8.07495117-17.22106932-4.8614502-4.44946289-11.28845215-6.83898926-17.88024903-6.50939942-6.59179689 0.32958985-12.77160645 3.21350098-17.22106933 8.07495117l-44.00024414 48.12011719-41.52832032-47.62573242c-8.98132325-10.38208007-24.71923828-11.45324708-35.10131836-2.47192384-10.38208007 8.98132325-11.45324708 24.71923828-2.47192381 35.10131837l30.23986816 34.77172851h-33.1237793c-13.76037598 0-24.88403321 11.12365723-24.88403321 24.88403321s11.12365723 24.88403321 24.88403321 24.88403319h58.09020995v17.38586427h-58.09020996c-13.76037598 0-24.88403321 11.12365723-24.88403321 24.8840332s11.12365723 24.88403321 24.88403321 24.88403321h58.09020996v35.59570312c0 13.76037598 11.12365723 24.88403321 24.88403321 24.8840332s24.88403321-11.12365723 24.8840332-24.8840332v-35.59570313h58.09020996c13.76037598 0 24.88403321-11.12365723 24.88403321-24.8840332 0.08239747-13.76037598-10.95886231-24.96643067-24.80163575-24.96643066z m0 0" fill="#FF623E" p-id="7080"></path></svg>