<?xml version="1.0" standalone="no"?><!DOCTYPE svg PUBLIC "-//W3C//DTD SVG 1.1//EN" "http://www.w3.org/Graphics/SVG/1.1/DTD/svg11.dtd"><svg t="1675761664038" class="icon" viewBox="0 0 1024 1024" version="1.1" xmlns="http://www.w3.org/2000/svg" p-id="12583" width="64" height="64" xmlns:xlink="http://www.w3.org/1999/xlink"><path d="M520.96 909.76H194.13333333c-52.90666667 0-96-43.09333333-96-96v-618.66666667c0-52.90666667 43.09333333-96 96-96h618.66666667c52.90666667 0 96 43.09333333 96 96v323.52c0 17.70666667-14.29333333 32-32 32s-32-14.29333333-32-32V195.09333333c0-17.6-14.4-32-32-32H194.13333333c-17.6 0-32 14.4-32 32v618.66666667c0 17.6 14.4 32 32 32h326.82666667c17.70666667 0 32 14.29333333 32 32s-14.29333333 32-32 32z m347.52-130.98666667H622.50666667c-17.70666667 0-32-14.29333333-32-32s14.29333333-32 32-32h246.08c17.70666667 0 32 14.29333333 32 32s-14.4 32-32.10666667 32zM745.49333333 901.76c-17.70666667 0-32-14.29333333-32-32V623.78666667c0-17.70666667 14.29333333-32 32-32s32 14.29333333 32 32v246.08c0 17.6-14.29333333 31.89333333-32 31.89333333zM315.52 423.57333333c-48 0-87.14666667-39.04-87.14666667-87.14666666 0-48 39.04-87.14666667 87.14666667-87.14666667s87.14666667 39.04 87.14666667 87.14666667c0 48-39.14666667 87.14666667-87.14666667 87.14666666z m0-125.22666666c-21.01333333 0-38.08 17.06666667-38.08 38.08s17.06666667 38.08 38.08 38.08 38.08-17.06666667 38.08-38.08-17.06666667-38.08-38.08-38.08zM133.33333333 689.28c-9.49333333 0-18.88-4.16-25.17333333-12.26666667-10.88-13.86666667-8.53333333-34.02666667 5.44-44.90666666l173.44-136.21333334c13.86666667-10.88 34.02666667-8.53333333 44.90666667 5.44 10.88 13.86666667 8.53333333 34.02666667-5.44 44.90666667L153.06666667 682.45333333c-5.86666667 4.58666667-12.8 6.82666667-19.73333334 6.82666667z m351.46666667-14.4c-6.61333333 0-13.33333333-2.02666667-19.09333333-6.29333333L294.72 541.33333333c-14.18666667-10.56-17.06666667-30.61333333-6.61333333-44.8s30.61333333-17.06666667 44.8-6.61333333l170.98666666 127.25333333c14.18666667 10.56 17.06666667 30.61333333 6.61333334 44.8-6.29333333 8.42666667-15.89333333 12.90666667-25.70666667 12.90666667z m0 0c-9.17333333 0-18.34666667-3.94666667-24.64-11.62666667-11.30666667-13.65333333-9.38666667-33.81333333 4.26666667-45.01333333l392-324.26666667c13.65333333-11.30666667 33.81333333-9.38666667 45.01333333 4.26666667 11.30666667 13.65333333 9.38666667 33.81333333-4.26666667 45.01333333l-392 324.26666667c-5.86666667 5.01333333-13.12 7.36-20.37333333 7.36z" p-id="12584" fill="#ffffff"></path></svg>