<?xml version="1.0" standalone="no"?><!DOCTYPE svg PUBLIC "-//W3C//DTD SVG 1.1//EN" "http://www.w3.org/Graphics/SVG/1.1/DTD/svg11.dtd"><svg t="1635858214816" class="icon" viewBox="0 0 1024 1024" version="1.1" xmlns="http://www.w3.org/2000/svg" p-id="7300" width="64" height="64" xmlns:xlink="http://www.w3.org/1999/xlink"><defs><style type="text/css"></style></defs><path d="M383.414857 344.53265603V231.49443404c0.20317499-71.05422199 57.864127-128.552635 128.926476-128.552635A128.552635 128.552635 0 0 1 640.893968 231.49443404v343.552h99.742476V231.49443404c0-126.082032-102.213079-228.286984-228.295111-228.286984-126.082032 0-228.295111 102.204952-228.29511099 228.286984v114.89117399l99.36863499-1.852952z" fill="#cccccc" p-id="7301"></path><path d="M811.268063 308.70078304h-593.43238c-60.62730201 0.20317499-109.633016 36.36825401-109.633016 80.904127v487.24520599c0.276317 44.39771402 49.20076201 80.327111 109.633016 80.53841302h593.43238c60.546032 0 109.633016-36.059429 109.633016-80.53841302V389.60491004c0.138159-21.42273001-11.353397-42.00025399-31.93092-57.18146-20.569397-15.189333-48.534349-23.722667-77.69396899-23.722667z" fill="#ff7744" p-id="7302"></path><path d="M523.784127 754.57964004a59.107556 59.107556 0 0 1-58.725587-59.10755499v-36.93714301a96.41854 96.41854 0 0 1-36.94526999-76.84063499 97.52381001 97.52381001 0 1 1 155.89180899 77.58018998v36.93714301a59.107556 59.107556 0 0 1-59.107555 59.107556l-1.10527001-0.739556z" fill="#ffffff" p-id="7303"></path></svg>