<?xml version="1.0" standalone="no"?><!DOCTYPE svg PUBLIC "-//W3C//DTD SVG 1.1//EN" "http://www.w3.org/Graphics/SVG/1.1/DTD/svg11.dtd"><svg t="1681466349201" class="icon" viewBox="0 0 1024 1024" version="1.1" xmlns="http://www.w3.org/2000/svg" p-id="3873" width="64" height="64" xmlns:xlink="http://www.w3.org/1999/xlink"><path d="M512 876.08888889c-178.00305778 0-336.80649443-112.3335589-476.0583589-331.78206777a60.2324389 60.2324389 0 0 1 0-64.61364224C175.19350557 260.24467001 333.99694222 147.91111111 512 147.91111111c178.00305778 0 336.80649443 112.3335589 476.0583589 331.78206777a60.2324389 60.2324389 0 0 1 0 64.61364224C848.80649443 763.75532999 690.00305778 876.08888889 512 876.08888889z m0-655.36c-147.35891001 0-283.8315611 95.40342557-409.73349888 291.27111111C228.1684389 707.86768555 364.64108999 803.27111111 512 803.27111111c147.35891001 0 283.8315611-95.40342557 409.73349888-291.27111111C795.8315611 316.13231445 659.35891001 220.72888889 512 220.72888889z m0 461.17925888c-94.67524779 0-171.42518557-76.07030557-171.42518557-169.90814777S417.32475221 342.09185223 512 342.09185223s171.42518557 76.07030557 171.42518557 169.90814777S606.67524779 681.90814777 512 681.90814777z m0-72.81777778c54.10360889 0 97.96418333-43.47221333 97.96418333-97.09036999S566.10360889 414.90963001 512 414.90963001c-54.10360889 0-97.96418333 43.47221333-97.96418333 97.09036999s43.86057443 97.09036999 97.96418333 97.09036999z" p-id="3874" fill="#aaaaaa"></path></svg>