<?xml version="1.0" standalone="no"?><!DOCTYPE svg PUBLIC "-//W3C//DTD SVG 1.1//EN" "http://www.w3.org/Graphics/SVG/1.1/DTD/svg11.dtd"><svg t="1635779795545" class="icon" viewBox="0 0 1028 1024" version="1.1" xmlns="http://www.w3.org/2000/svg" p-id="6018" width="64.25" height="64" xmlns:xlink="http://www.w3.org/1999/xlink"><defs><style type="text/css"></style></defs><path d="M924.82246602 213.84770469c-14.33370674-47.0324751-67.63717793-100.33594628-114.66965215-114.22172461-211.42217285-49.72004473-384.77043633-49.72004473-596.19260918 0-47.0324751 14.33370674-100.33594628 67.63717793-114.66965303 114.66965302-49.72004473 211.42217285-49.72004473 384.77043633 0 596.19260919 14.33370674 47.0324751 67.63717793 100.33594628 114.66965303 114.22172373 211.42217285 49.72004473 384.77043633 49.72004473 596.19260917 0 47.0324751-14.33370674 100.33594628-67.18924951 114.66965216-114.22172373 49.72004473-211.87010039 49.72004473-384.77043633 0-596.6405376z m-502.5755874 161.25419883h-36.28219483V485.74020166l36.28219483-11.19820869v73.01231807l-36.28219483 11.19820868v211.8701004H268.15953271l-14.78163515-60.91825254h29.11534189V590.55543125l-43.00112021 12.54199307V530.08510625l43.00112021-12.54199307v-142.44120966h-43.00112021v-65.84546426h43.00112021V250.12989951h103.47144434v59.12653975h36.28219483v65.84546426z m331.46696513 397.31243026H465.24799795V494.25083984h-33.1466959l41.65733496-240.98544228h104.81522959L545.87509824 443.63493828h121.38857754l-21.05263125-118.70100791h-65.39753672l12.54199307-71.66853281h145.57670771l41.65733497 240.98544228H747.44284677v169.31690948h-132.13885781l-17.46920478-59.12653975h48.37626035V506.34490449h-76.59574541v202.46360625H783.27711406l-29.56327031 63.60582304z" fill="#ff705f" p-id="6019"></path></svg>