<?xml version="1.0" standalone="no"?><!DOCTYPE svg PUBLIC "-//W3C//DTD SVG 1.1//EN" "http://www.w3.org/Graphics/SVG/1.1/DTD/svg11.dtd"><svg t="1683192223258" class="icon" viewBox="0 0 1024 1024" version="1.1" xmlns="http://www.w3.org/2000/svg" p-id="10237" xmlns:xlink="http://www.w3.org/1999/xlink" width="64" height="64"><path d="M918.59626667 495.16088853l-141.7216 136.21475627 33.45066666 192.05688853a82.9212448 82.9212448 0 0 1-33.04106666 81.60142187 85.1968 85.1968 0 0 1-89.79342187 6.9176896L512 821.0204448l-175.4908448 90.88568853a85.28782187 85.28782187 0 0 1-89.79342187-6.91768853 83.01226667 83.01226667 0 0 1-33.04106666-81.60142293l33.45066666-192.05688854-141.7216-136.2147552a82.7392 82.7392 0 0 1-21.7088-85.5608896 83.83146667 83.83146667 0 0 1 68.6307552-57.48053333l196.1528896-28.12586667 87.60888854-174.99022186A84.28657813 84.28657813 0 0 1 512 102.4c32.40391147 0 61.53102187 17.88586667 75.91253333 46.60337813l87.6544 174.99022187 196.15288854 28.12586667A83.83146667 83.83146667 0 0 1 940.2595552 409.6c9.8304 30.4924448 1.54737813 63.2604448-21.66328853 85.56088853z" fill="#FFC130" p-id="10238"></path><path d="M777.96693333 338.69368853l93.75288854 13.42577814A83.83146667 83.83146667 0 0 1 940.2595552 409.6c9.8304 30.4924448 1.54737813 63.2604448-21.66328853 85.56088853l-141.7216 136.21475627 4.55111146 25.71377707-199.97582293 199.93031146L512 821.0204448l-175.4908448 90.88568853a85.28782187 85.28782187 0 0 1-107.45173333-24.3484448L777.96693333 338.64817813z" fill="#FFC745" p-id="10239"></path><path d="M607.2092448 187.5968l68.35768853 136.3968 102.4 14.65457813-548.864 548.9095104a82.7392 82.7392 0 0 1-15.42826666-64.1251552l33.45066666-192.05688853-42.64391146-41.05102293 402.77333333-402.72782187z" fill="#FFCD59" p-id="10240"></path><path d="M512 102.4c32.40391147 0 61.53102187 17.88586667 75.91253333 46.60337813l19.34222187 38.5479104-402.77333333 402.77333334-99.07768854-95.11822187A82.7392 82.7392 0 0 1 83.7404448 409.6a83.83146667 83.83146667 0 0 1 68.6307552-57.48053333l196.15288853-28.12586667 87.6088896-174.99022187A84.28657813 84.28657813 0 0 1 512 102.4z" fill="#FFD982" p-id="10241"></path></svg>