<?xml version="1.0" standalone="no"?><!DOCTYPE svg PUBLIC "-//W3C//DTD SVG 1.1//EN" "http://www.w3.org/Graphics/SVG/1.1/DTD/svg11.dtd"><svg t="1719459140874" class="icon" viewBox="0 0 1024 1024" version="1.1" xmlns="http://www.w3.org/2000/svg" p-id="15189" xmlns:xlink="http://www.w3.org/1999/xlink" width="200" height="200"><path d="M775.46666667 323.2c0-146.13333333-118.4-264.53333333-264.53333334-264.53333333S246.4 177.06666667 246.4 323.2c0 88.32 43.30666667 166.61333333 109.86666667 214.61333333-0.42666667 0.21333333-0.74666667 0.32-0.96 0.42666667-47.68 20.16-90.45333333 49.06666667-127.25333334 85.97333333-36.8 36.8-65.6 79.68-85.76 127.46666667C122.56 798.4 112 848 110.93333333 898.98666667c-0.10666667 4.8 3.73333333 8.74666667 8.53333334 8.74666666h63.89333333c4.58666667 0 8.42666667-3.73333333 8.53333333-8.32 2.13333333-82.34666667 35.09333333-159.46666667 93.44-217.92C345.6 621.01333333 425.6 587.73333333 510.93333333 587.73333333c146.13333333 0 264.53333333-118.4 264.53333334-264.53333333zM510.93333333 506.66666667c-101.33333333 0-183.46666667-82.13333333-183.46666666-183.46666667s82.13333333-183.46666667 183.46666666-183.46666667 183.46666667 82.13333333 183.46666667 183.46666667-82.13333333 183.46666667-183.46666667 183.46666667z m112 235.73333333h281.6c4.69333333 0 8.53333333-3.84 8.53333334-8.53333333v-59.73333334c0-4.69333333-3.84-8.53333333-8.53333334-8.53333333H716.26666667l50.34666666-64.10666667c1.17333333-1.49333333 1.81333333-3.41333333 1.81333334-5.22666666 0-4.69333333-3.84-8.53333333-8.53333334-8.53333334h-77.44c-5.22666667 0-10.13333333 2.45333333-13.44 6.50666667l-73.06666666 92.90666667c-4.69333333 5.97333333-7.25333333 13.44-7.25333334 21.12 0.10666667 18.88 15.36 34.13333333 34.24 34.13333333z m256 68.26666667H597.33333333c-4.69333333 0-8.53333333 3.84-8.53333333 8.53333333v59.73333333c0 4.69333333 3.84 8.53333333 8.53333333 8.53333334h188.26666667l-50.34666667 64.10666666c-1.17333333 1.49333333-1.81333333 3.41333333-1.81333333 5.22666667 0 4.69333333 3.84 8.53333333 8.53333333 8.53333333h77.44c5.22666667 0 10.13333333-2.45333333 13.44-6.50666666l73.06666667-92.90666667c4.69333333-5.97333333 7.25333333-13.44 7.25333333-21.12-0.10666667-18.88-15.36-34.13333333-34.24-34.13333333z" p-id="15190" fill="#666666"></path></svg>