<svg width="16" height="16" viewBox="0 0 16 16" fill="none" xmlns="http://www.w3.org/2000/svg">
<g id="Bell">
<path id="Vector" d="M13.4286 12.5692H13V6.49777C13 3.97813 11.1375 1.89598 8.71429 1.54955V0.854911C8.71429 0.460268 8.39464 0.140625 8 0.140625C7.60536 0.140625 7.28571 0.460268 7.28571 0.854911V1.54955C4.8625 1.89598 3 3.97813 3 6.49777V12.5692H2.57143C2.25536 12.5692 2 12.8246 2 13.1406V13.7121C2 13.7906 2.06429 13.8549 2.14286 13.8549H6C6 14.9585 6.89643 15.8549 8 15.8549C9.10357 15.8549 10 14.9585 10 13.8549H13.8571C13.9357 13.8549 14 13.7906 14 13.7121V13.1406C14 12.8246 13.7446 12.5692 13.4286 12.5692ZM8 14.7121C7.52679 14.7121 7.14286 14.3281 7.14286 13.8549H8.85714C8.85714 14.3281 8.47321 14.7121 8 14.7121ZM4.28571 12.5692V6.49777C4.28571 5.50491 4.67143 4.57277 5.37321 3.87098C6.075 3.1692 7.00714 2.78348 8 2.78348C8.99286 2.78348 9.925 3.1692 10.6268 3.87098C11.3286 4.57277 11.7143 5.50491 11.7143 6.49777V12.5692H4.28571Z" fill="#666666"/>
</g>
</svg>
