<svg width="32" height="32" viewBox="0 0 32 32" fill="none" xmlns="http://www.w3.org/2000/svg">
<mask id="mask0_2800_421" style="mask-type:luminance" maskUnits="userSpaceOnUse" x="0" y="0" width="32" height="32">
<path d="M-1.39876e-06 0L0 32L32 32L32 -1.39876e-06L-1.39876e-06 0Z" fill="white"/>
</mask>
<g mask="url(#mask0_2800_421)">
<path fill-rule="evenodd" clip-rule="evenodd" d="M13.4698 21.4695L18.9393 16L13.4701 10.5308C13.3998 10.4605 13.3451 10.3789 13.3071 10.287C13.269 10.1951 13.25 10.0995 13.25 10C13.25 9.95073 13.2548 9.90197 13.2644 9.8537C13.274 9.80537 13.2882 9.75847 13.3071 9.713C13.3259 9.66747 13.349 9.62423 13.3764 9.5833C13.4038 9.54237 13.4348 9.5045 13.4697 9.4697C13.5045 9.43483 13.5424 9.40373 13.5833 9.3764C13.6243 9.34907 13.6675 9.32597 13.713 9.3071C13.7585 9.28823 13.8054 9.274 13.8537 9.2644C13.902 9.2548 13.9508 9.25 14 9.25C14.0995 9.25 14.1951 9.26903 14.287 9.3071C14.3789 9.34517 14.46 9.39937 14.5303 9.4697L20.5303 15.4697C20.6007 15.54 20.6548 15.6211 20.6929 15.713C20.731 15.8049 20.75 15.9005 20.75 16C20.75 16.0995 20.731 16.1951 20.6929 16.287C20.6548 16.3789 20.6007 16.46 20.5303 16.5303L14.5305 22.5302C14.4602 22.6005 14.3789 22.6548 14.287 22.6929C14.1951 22.731 14.0995 22.75 14 22.75C13.9508 22.75 13.902 22.7452 13.8537 22.7356C13.8054 22.726 13.7585 22.7118 13.713 22.6929C13.6675 22.6741 13.6243 22.651 13.5833 22.6236C13.5424 22.5962 13.5045 22.5652 13.4697 22.5303C13.4348 22.4955 13.4038 22.4576 13.3764 22.4167C13.349 22.3757 13.3259 22.3325 13.3071 22.287C13.2882 22.2415 13.274 22.1946 13.2644 22.1463C13.2548 22.098 13.25 22.0492 13.25 22C13.25 21.9005 13.269 21.8049 13.3071 21.713C13.3452 21.6211 13.3995 21.5398 13.4698 21.4695Z" fill="#5F5F5F"/>
</g>
</svg>
