<svg xmlns="http://www.w3.org/2000/svg" xmlns:xlink="http://www.w3.org/1999/xlink" fill="none" version="1.1" width="18.34393310546875" height="18.344120025634766" viewBox="0 0 18.34393310546875 18.344120025634766"><g><path d="M8.34998779296875,16.39999923706055Q5.01537779296875,16.39999923706055,2.65768779296875,14.042299237060547Q0.29998779296875,11.684599237060548,0.29998779296875,8.349999237060548Q0.29998779296875,5.015389237060547,2.65768779296875,2.657699237060547Q5.01537779296875,0.2999992370605469,8.34998779296875,0.2999992370605469Q11.68458779296875,0.2999992370605469,14.04228779296875,2.657699237060547Q16.39998779296875,5.015389237060547,16.39998779296875,8.349999237060548Q16.39998779296875,11.431799237060547,14.38618779296875,13.679299237060548L17.89748779296875,17.190599237060546Q17.93228779296875,17.225399237060547,17.95968779296875,17.266299237060547Q17.98698779296875,17.307299237060548,18.00588779296875,17.352799237060548Q18.02468779296875,17.398299237060545,18.03428779296875,17.446599237060546Q18.04388779296875,17.494899237060547,18.04388779296875,17.544099237060546Q18.04388779296875,17.593399237060545,18.03428779296875,17.641699237060546Q18.02468779296875,17.689999237060547,18.00588779296875,17.735499237060548Q17.98698779296875,17.78099923706055,17.95968779296875,17.821899237060546Q17.93228779296875,17.862899237060546,17.89748779296875,17.897699237060547Q17.86268779296875,17.932499237060547,17.82168779296875,17.959899237060547Q17.78078779296875,17.987199237060548,17.73528779296875,18.006099237060546Q17.68978779296875,18.02489923706055,17.64148779296875,18.034499237060547Q17.59318779296875,18.044099237060546,17.54388779296875,18.044099237060546Q17.49468779296875,18.044099237060546,17.44638779296875,18.034499237060547Q17.39808779296875,18.02489923706055,17.35258779296875,18.006099237060546Q17.30708779296875,17.987199237060548,17.26618779296875,17.959899237060547Q17.22518779296875,17.932499237060547,17.19038779296875,17.897699237060547L13.67908779296875,14.386399237060546Q11.43168779296875,16.39999923706055,8.34998779296875,16.39999923706055ZM8.34998779296875,15.399999237060547Q11.27038779296875,15.399999237060547,13.33518779296875,13.335199237060547Q15.39998779296875,11.270399237060547,15.39998779296875,8.349999237060548Q15.39998779296875,5.429609237060546,13.33518779296875,3.364799237060547Q11.27038779296875,1.2999992370605469,8.34998779296875,1.2999992370605469Q5.42958779296875,1.2999992370605469,3.36478779296875,3.364799237060547Q1.29998779296875,5.429609237060546,1.29998779296875,8.349999237060548Q1.29998779296875,11.270399237060547,3.36478779296875,13.335199237060547Q5.42959779296875,15.399999237060547,8.34998779296875,15.399999237060547Z" fill-rule="evenodd" fill="#FFFFFF" fill-opacity="1"/><path d="M8.34998779296875,16.699999237060545Q4.89111779296875,16.699999237060545,2.44554779296875,14.254399237060547Q-0.000011207031250015653,11.808899237060547,-0.000012207031249988898,8.349999237060548Q-0.000012207031249988898,4.891129237060547,2.44555779296875,2.445559237060547Q4.89111779296875,2.3706054685934674e-7,8.34998779296875,-7.629394531138978e-7Q11.80888779296875,-7.629394531138978e-7,14.25438779296875,2.445559237060547Q16.69998779296875,4.891119237060547,16.69998779296875,8.349999237060548Q16.69998779296875,11.546599237060548,14.60958779296875,13.879499237060546L14.38618779296875,13.679299237060548L14.59828779296875,13.467099237060546L18.10958779296875,16.978399237060547Q18.34388779296875,17.212799237060548,18.34388779296875,17.544099237060546Q18.34388779296875,17.87549923706055,18.10958779296875,18.109799237060546Q17.87528779296875,18.344099237060547,17.54388779296875,18.344099237060547Q17.21258779296875,18.344099237060547,16.97828779296875,18.109799237060546L13.46688779296875,14.598499237060548L13.67908779296875,14.386399237060546L13.87928779296875,14.609799237060546Q11.54648779296875,16.699999237060545,8.34998779296875,16.699999237060545ZM8.34998779296875,16.099999237060548Q11.31698779296875,16.099999237060548,13.47888779296875,14.162899237060547L13.69038779296875,13.973399237060548L17.40248779296875,17.685499237060547Q17.54388779296875,17.826999237060548,17.68538779296875,17.685499237060547Q17.82678779296875,17.544099237060546,17.68538779296875,17.402699237060546L13.97318779296875,13.690599237060546L14.16278779296875,13.479099237060547Q16.09998779296875,11.317099237060546,16.09998779296875,8.349999237060548Q16.09998779296875,5.139649237060547,13.83018779296875,2.869829237060547Q11.56028779296875,0.5999992370605469,8.34998779296875,0.5999992370605469Q5.13964779296875,0.6000002370605468,2.86981779296875,2.869829237060547Q0.59998779296875,5.139649237060547,0.59998779296875,8.349999237060548Q0.59998679296875,11.560299237060548,2.86981779296875,13.830199237060548Q5.13963779296875,16.099999237060548,8.34998779296875,16.099999237060548ZM8.34998779296875,15.099999237060548Q11.14608779296875,15.099999237060548,13.12308779296875,13.123099237060547Q15.09998779296875,11.146099237060547,15.09998779296875,8.349999237060548Q15.09998779296875,5.553869237060547,13.12308779296875,3.576939237060547Q11.14608779296875,1.599999237060547,8.34998779296875,1.599999237060547Q5.55385779296875,1.599999237060547,3.57692779296875,3.576939237060547Q1.59998779296875,5.553869237060547,1.59998779296875,8.349999237060548Q1.59998779296875,11.146099237060547,3.57692779296875,13.123099237060547Q5.55385779296875,15.099999237060548,8.34998779296875,15.099999237060548ZM8.34998779296875,15.699999237060547Q5.30532779296875,15.699999237060547,3.15265779296875,13.547299237060546Q0.99998779296875,11.394699237060546,0.99998779296875,8.349999237060548Q0.99998879296875,5.305339237060547,3.15265779296875,3.1526692370605467Q5.30532779296875,0.9999992370605468,8.34998779296875,0.9999992370605468Q11.39468779296875,1.0000002370605467,13.54728779296875,3.1526692370605467Q15.69998779296875,5.305339237060547,15.69998779296875,8.349999237060548Q15.69998779296875,11.394699237060546,13.54728779296875,13.547299237060546Q11.39468779296875,15.699999237060547,8.34998779296875,15.699999237060547Z" fill="#FFFFFF" fill-opacity="1"/></g></svg>