<svg width="16" height="17" viewBox="0 0 16 17" fill="none" xmlns="http://www.w3.org/2000/svg">
<g id="&#230;&#144;&#156;&#231;&#180;&#162;">
<rect id="&#231;&#159;&#169;&#229;&#189;&#162;" opacity="0.01" width="16" height="16.4444" fill="#333333"/>
<path id="&#232;&#183;&#175;&#229;&#190;&#132;" fill-rule="evenodd" clip-rule="evenodd" d="M13.3333 7.53715C13.3333 4.50981 10.9455 2.05566 7.99996 2.05566C5.05444 2.05566 2.66663 4.50981 2.66663 7.53715C2.66663 10.5645 5.05444 13.0186 7.99996 13.0186C10.9455 13.0186 13.3333 10.5645 13.3333 7.53715Z" stroke="#333333" stroke-width="1.5" stroke-linecap="round"/>
<path id="&#231;&#159;&#169;&#229;&#189;&#162;_2" d="M11.7406 11.8532C11.7375 11.85 11.7363 11.8477 11.7356 11.8459C11.7347 11.8436 11.734 11.8405 11.734 11.8368C11.7341 11.833 11.7348 11.8299 11.7357 11.8276C11.7364 11.8259 11.7375 11.8236 11.7407 11.8203C11.7439 11.817 11.7462 11.8158 11.7479 11.8151C11.7501 11.8142 11.7531 11.8135 11.7568 11.8135C11.7605 11.8135 11.7636 11.8143 11.7658 11.8152C11.7675 11.8159 11.7697 11.8171 11.7729 11.8204L13.9813 14.1175C13.9844 14.1208 13.9856 14.1231 13.9863 14.1249C13.9871 14.1271 13.9878 14.1303 13.9878 14.134C13.9878 14.1378 13.9871 14.1409 13.9862 14.1431C13.9855 14.1449 13.9843 14.1472 13.9812 14.1504C13.978 14.1537 13.9757 14.1549 13.974 14.1556C13.9718 14.1565 13.9687 14.1573 13.9651 14.1573C13.9614 14.1573 13.9583 14.1565 13.9561 14.1556C13.9544 14.1549 13.9522 14.1537 13.949 14.1503L11.7406 11.8532Z" fill="#333333" stroke="#333333" stroke-width="1.5"/>
</g>
</svg>
