<?xml version="1.0" standalone="no"?><!DOCTYPE svg PUBLIC "-//W3C//DTD SVG 1.1//EN" "http://www.w3.org/Graphics/SVG/1.1/DTD/svg11.dtd"><svg t="1624240897689" class="icon" viewBox="0 0 1024 1024" version="1.1" xmlns="http://www.w3.org/2000/svg" p-id="14733" width="100" height="100" xmlns:xlink="http://www.w3.org/1999/xlink"><defs><style type="text/css"></style></defs><path d="M759.21875 852.453125c22.359375-0.84375 41.34375 16.453125 42.1875 38.8125 0.84375 22.359375-16.453125 41.34375-38.8125 42.1875H263.09375c-22.359375-0.84375-39.65625-19.828125-38.8125-42.1875 0.84375-21.09375 17.71875-37.96875 38.8125-38.8125h496.125z m0-761.90625c22.359375 0 40.078125 17.71875 40.5 40.078125v313.453125c0 199.125-104.203125 320.625-288.5625 320.625-182.25 0-286.453125-118.96875-288.5625-314.71875V131.046875c0-22.359375 17.71875-40.921875 40.078125-40.921875s40.921875 17.71875 40.921875 40.078125v313.453125c0 78.046875 18.140625 138.796875 52.734375 178.875 34.171875 39.65625 85.640625 60.75 154.828125 60.75s120.65625-21.09375 154.828125-60.75c34.171875-39.65625 52.3125-99.140625 52.734375-176.34375V131.046875c0-22.359375 18.140625-40.5 40.5-40.5z" p-id="14734" fill="#666666"></path></svg>