<?xml version="1.0" standalone="no"?><!DOCTYPE svg PUBLIC "-//W3C//DTD SVG 1.1//EN" "http://www.w3.org/Graphics/SVG/1.1/DTD/svg11.dtd"><svg t="1624250494738" class="icon" viewBox="0 0 1024 1024" version="1.1" xmlns="http://www.w3.org/2000/svg" p-id="1742" width="100" height="100" xmlns:xlink="http://www.w3.org/1999/xlink"><defs><style type="text/css"></style></defs><path d="M160.4375 202.625h703.125a42.1875 42.1875 0 0 0 0-84.375H160.4375a42.1875 42.1875 0 0 0 0 84.375zM863.5625 645.59375H160.4375a42.1875 42.1875 0 0 0 0 84.375h703.125a42.1875 42.1875 0 0 0 0-84.375zM863.5625 469.8125H603.6875a42.1875 42.1875 0 0 0 0 84.375H863.5625a42.1875 42.1875 0 0 0 0-84.375zM863.5625 294.03125H603.6875a42.1875 42.1875 0 0 0 0 84.375H863.5625a42.1875 42.1875 0 0 0 0-84.375zM863.5625 821.375H160.4375a42.1875 42.1875 0 0 0 0 84.375h703.125a42.1875 42.1875 0 0 0 0-84.375z" p-id="1743" fill="#777777"></path><path d="M118.25 301.0625m56.25 0l281.25 0q56.25 0 56.25 56.25l0 140.625q0 56.25-56.25 56.25l-281.25 0q-56.25 0-56.25-56.25l0-140.625q0-56.25 56.25-56.25Z" p-id="1744" fill="#777777"></path></svg>