<?xml version="1.0" standalone="no"?><!DOCTYPE svg PUBLIC "-//W3C//DTD SVG 1.1//EN" "http://www.w3.org/Graphics/SVG/1.1/DTD/svg11.dtd"><svg t="1624258516249" class="icon" viewBox="0 0 1024 1024" version="1.1" xmlns="http://www.w3.org/2000/svg" p-id="9020" width="100" height="100" xmlns:xlink="http://www.w3.org/1999/xlink"><defs><style type="text/css"></style></defs><path d="M666.773898 553.357319v76.574251h-115.222575v115.222575h-76.574251v-115.222575H359.754497v-76.574251h115.222575v-38.287125H359.754497v-76.93545h38.287126L359.754497 361.199295h76.574251l38.648324 76.935449h76.574251l38.648324-76.935449h76.574251L628.486772 438.134744h38.287126v76.93545h-115.222575v38.287125z" p-id="9021" fill="#666666"></path><path d="M513.264198 933.338977c-230.806349 0-418.629982-187.823633-418.629983-418.629982 0-67.183069 16.253968-134.004938 46.955908-192.880424l57.430688 29.979542c-26.006349 49.484303-39.731922 105.831393-39.731922 162.539682 0 195.047619 158.56649 353.614109 353.614109 353.61411 56.34709 0 109.804586-12.641975 158.92769-37.203528l29.257143 57.791888c-57.791887 29.618342-121.001764 44.788713-187.823633 44.788712zM871.935097 730.344974L816.310406 697.114638c33.230335-54.902293 50.567901-118.112169 50.567901-182.405643 0-195.047619-158.56649-353.614109-353.614109-353.61411-66.099471 0-130.392945 18.421164-186.378836 53.096297L292.932628 158.92769c66.099471-40.81552 142.312522-62.487478 220.33157-62.487478 230.806349 0 418.629982 187.823633 418.629982 418.629982 0 75.851852-20.949559 150.258907-59.959083 215.27478z" p-id="9022" fill="#666666"></path></svg>