<?xml version="1.0" standalone="no"?><!DOCTYPE svg PUBLIC "-//W3C//DTD SVG 1.1//EN" "http://www.w3.org/Graphics/SVG/1.1/DTD/svg11.dtd"><svg t="1624262214223" class="icon" viewBox="0 0 1024 1024" version="1.1" xmlns="http://www.w3.org/2000/svg" p-id="1815" width="100" height="100" xmlns:xlink="http://www.w3.org/1999/xlink"><defs><style type="text/css"></style></defs><path d="M392 92a60 60 0 0 1 60 60v240a60 60 0 0 1-60 60H152a60 60 0 0 1-60-60V152a60 60 0 0 1 60-60h240z m0 60H152v240h240V152zM392 572a60 60 0 0 1 60 60v240a60 60 0 0 1-60 60H152a60 60 0 0 1-60-60v-240a60 60 0 0 1 60-60h240z m0 60H152v240h240v-240z" p-id="1816" fill="#666666"></path><path d="M572 152m30 0l300 0q30 0 30 30l0 0q0 30-30 30l-300 0q-30 0-30-30l0 0q0-30 30-30Z" p-id="1817" fill="#666666"></path><path d="M572 632m30 0l300 0q30 0 30 30l0 0q0 30-30 30l-300 0q-30 0-30-30l0 0q0-30 30-30Z" p-id="1818" fill="#666666"></path><path d="M572 332m30 0l300 0q30 0 30 30l0 0q0 30-30 30l-300 0q-30 0-30-30l0 0q0-30 30-30Z" p-id="1819" fill="#666666"></path><path d="M572 812m30 0l300 0q30 0 30 30l0 0q0 30-30 30l-300 0q-30 0-30-30l0 0q0-30 30-30Z" p-id="1820" fill="#666666"></path></svg>