<?xml version="1.0" standalone="no"?><!DOCTYPE svg PUBLIC "-//W3C//DTD SVG 1.1//EN" "http://www.w3.org/Graphics/SVG/1.1/DTD/svg11.dtd"><svg t="1624261008929" class="icon" viewBox="0 0 1084 1024" version="1.1" xmlns="http://www.w3.org/2000/svg" p-id="1810" width="105.859375" height="100" xmlns:xlink="http://www.w3.org/1999/xlink"><defs><style type="text/css"></style></defs><path d="M852.7749566 605.27284071a33.88183594 33.88183594 0 0 1 33.77636718 33.82910156v209.54179688l37.1654297-37.21728516a32.66455078 32.66455078 0 0 1 47.32910155 0 32.66455078 32.66455078 0 0 1 0 47.32910156l-94.65820312 94.65820313a30.70546875 30.70546875 0 0 1-23.66542969 10.11269531 30.70546875 30.70546875 0 0 1-23.66455078-10.11181641L731.11675348 855.36737196a32.66455078 32.66455078 0 0 1 0-47.27636719 32.66455078 32.66455078 0 0 1 47.27636718 0l40.55273437 40.55273438V639.05008681c0-20.27636719 13.5-33.82910156 33.77636719-33.82910157zM942.93315973 84.8610243a67.76455078 67.76455078 0 0 1 67.60634765 67.55273438v473.13632813h-67.60546875V186.24286025a33.88183594 33.88183594 0 0 0-33.77636719-33.82910157H165.59858941a33.88183594 33.88183594 0 0 0-33.77636719 33.82910157v608.29453124c0 16.94091797 13.5 33.82910156 33.77636719 33.82910157h487.8v67.55273437H131.82222222a67.76455078 67.76455078 0 0 1-67.60546874-67.55273437V152.41375868A67.76455078 67.76455078 0 0 1 131.82222222 84.8610243zM831.38765191 331.56737196a32.66455078 32.66455078 0 0 1 47.32910157 0 32.66455078 32.66455078 0 0 1 0 47.27636719L544.12856988 713.43192274c-13.5 10.16455078-27 10.16455078-40.55273438 3.3881836-3.38818359 0-3.38818359 0-6.77636719-3.3881836L378.52769097 595.1610243 236.59312066 737.09735244a32.66455078 32.66455078 0 0 1-47.32910156-1e-8 36.2109375 36.2109375 0 0 1-3.3890625-47.32910157l168.9881836-168.98818359c13.55273438-13.5 30.44179687-13.5 43.94179686-3.33544922l3.3881836 3.33544922 118.27001954 121.7109375zM337.7640191 220.01922742a104.55908203 104.55908203 0 1 1 0 209.11816407 104.55908203 104.55908203 0 0 1 0-209.11816407z m0 57.49453126a47.06542969 47.06542969 0 1 0 0 94.07636719 47.06542969 47.06542969 0 0 0 0-94.07636719z" p-id="1811" fill="#666666"></path></svg>