<?xml version="1.0" standalone="no"?><!DOCTYPE svg PUBLIC "-//W3C//DTD SVG 1.1//EN" "http://www.w3.org/Graphics/SVG/1.1/DTD/svg11.dtd"><svg t="1624264117598" class="icon" viewBox="0 0 1024 1024" version="1.1" xmlns="http://www.w3.org/2000/svg" p-id="2057" width="100" height="100" xmlns:xlink="http://www.w3.org/1999/xlink"><defs><style type="text/css"></style></defs><path d="M512 84.36363594c-235.63636406 0-427.63636406 192-427.63636406 427.63636406s192 427.63636406 427.63636406 427.63636406 427.63636406-192 427.63636406-427.63636406-192-427.63636406-427.63636406-427.63636406z m0 785.45454562c-196.36363594 0-357.81818156-161.45454563-357.81818156-357.81818156s161.45454563-357.81818156 357.81818156-357.81818156 357.81818156 161.45454563 357.81818156 357.81818156-161.45454563 357.81818156-357.81818156 357.81818156z" p-id="2058" fill="#666666"></path><path d="M682.18181844 285.09090875c-26.18181844 4.36363594-52.36363594 13.09090875-74.18181844 21.8181825-69.81818156 34.90909125-113.45454562 100.36363594-122.18181844 187.63636313-8.72727281 69.81818156-39.27272719 113.45454562-91.63636312 143.99999999-34.90909125 17.45454563-74.18181844 26.18181844-96 26.18181844h-17.45454563v74.18181844h13.09090875c43.63636406 0 96-13.09090875 135.27272719-34.90909125 56.72727281-30.54545437 96-78.54545438 117.8181825-139.63636406v-4.36363594h161.45454469v-74.18181844h-144v-8.72727281c13.09090875-52.36363594 39.27272719-87.27272719 78.54545531-104.72727281 13.09090875-8.72727281 30.54545437-13.09090875 52.36363594-17.45454469 13.09090875-4.36363594 21.81818156 0 34.90909125 0h13.09090875V285.09090875h-13.09090875c-17.45454563 0-30.54545437-4.36363594-48 0z" p-id="2059" fill="#666666"></path></svg>