<?xml version="1.0" standalone="no"?><!DOCTYPE svg PUBLIC "-//W3C//DTD SVG 1.1//EN" "http://www.w3.org/Graphics/SVG/1.1/DTD/svg11.dtd"><svg t="1624250999369" class="icon" viewBox="0 0 1024 1024" version="1.1" xmlns="http://www.w3.org/2000/svg" p-id="3991" width="100" height="100" xmlns:xlink="http://www.w3.org/1999/xlink"><defs><style type="text/css"></style></defs><path d="M925.5 394.4V217c0-65.3-53-118.3-118.3-118.3H215.9c-65.3 0-118.3 53-118.3 118.3v591.3c0 65.3 53 118.3 118.3 118.3h591.3c65.3 0 118.3-53 118.3-118.3V394.4zM174.1 175.1c11.1-11.1 26.2-17.4 41.9-17.4h591.4c15.7 0 30.7 6.3 41.8 17.4 11.1 11.1 17.3 26.2 17.2 41.9v118.3H156.7V217c0-15.7 6.3-30.8 17.4-41.9z m248.7 426.3v-207h177.6v207H422.8z m177.6 59.1v207H422.8v-207h177.6z m-236.7-59.1h-207v-207h207v207zM174.1 850.2c-11.1-11-17.4-26.1-17.4-41.8V660.5h207v207H216c-15.7 0-30.8-6.2-41.9-17.3z m692.3-41.8c0 15.7-6.2 30.7-17.3 41.8a59.028 59.028 0 0 1-41.8 17.3H659.5v-207h207v147.9z m0-207h-207v-207h207v207z m0 0" p-id="3992" fill="#777777"></path></svg>