<?xml version="1.0" standalone="no"?><!DOCTYPE svg PUBLIC "-//W3C//DTD SVG 1.1//EN" "http://www.w3.org/Graphics/SVG/1.1/DTD/svg11.dtd"><svg t="1624264525982" class="icon" viewBox="0 0 1024 1024" version="1.1" xmlns="http://www.w3.org/2000/svg" p-id="2769" width="100" height="100" xmlns:xlink="http://www.w3.org/1999/xlink"><defs><style type="text/css"></style></defs><path d="M621.1390625 583.94375027l-158.00625027-92.0953125a21.9796875 21.9796875 0 0 0-16.67812446-7.62187554c-12.33281277 0-22.21874973 10.06874973-22.21875054 22.4015625v1.2234375l-0.28124973 0.19687554 0.3796875 188.15625c-0.09843777 0.74531223-0.09843777 1.49062527-0.09843777 2.34843723a22.30312473 22.30312473 0 0 0 33.60937554 19.29375027l161.69062473-94.1625c7.53749973-3.48749973 12.81093723-11.20781223 12.81093723-20.25 0-8.29687473-4.5140625-15.62343777-11.20781223-19.490625zM570.8515625 903.35937473c0 16.70625 13.584375 30.23437473 30.3328125 30.23437554 16.73437473 0 30.31874973-13.52812473 30.31874973-30.23437554 0-16.69218723-13.584375-30.23437473-30.31874973-30.23437473-16.7484375 0-30.3328125 13.5421875-30.3328125 30.23437473z" p-id="2770" fill="#666666"></path><path d="M813.14843777 90.125H210.75312527C144.4625 90.125 90.22343777 144.36406223 90.22343777 210.6546875v602.3953125c0 66.30468723 54.23906223 120.54375027 120.5296875 120.54375027H479.79687473c16.76250027 0 30.23437473-13.55625027 30.23437554-30.23437554 0-16.6640625-13.57031223-30.23437473-30.3328125-30.23437473h-0.56250027l-268.48125 0.19687473c-33.14531223 0-60.25781277-27.87187473-60.25781277-61.03124973V330.93125c0.56250027 0 1.2234375 0.084375 1.78593777 0.084375h721.6171875v481.30312473c0 33.14531223-27.1265625 61.03124973-60.27187473 61.03125054h-87.01875054a30.27656223 30.27656223 0 0 0-33.7078125 30.0375c0 16.6640625 13.55625027 30.22031277 30.31875054 30.22031196h90.12656196c66.29062527 0 120.5296875-54.23906223 120.5296875-120.54374946V210.6546875C933.69218723 144.36406223 879.453125 90.125 813.14843777 90.125zM647.50625 270.92656223l-69.67968723-120.81093723h85.5984375l69.67968723 120.81093723h-85.5984375z m-157.72499973 0l-69.69375-120.81093723h85.49999973l69.69375 120.81093723h-85.49999973z m-162.73125027 0l-69.778125-120.81093723h90.4921875l69.69375 120.81093723h-90.4078125z m-176.65312527 0.09843777V210.359375a60.34218777 60.34218777 0 0 1 37.29375-55.6453125l67.0359375 116.19843777H152.1828125c-0.56250027 0-1.2234375 0-1.78593777 0.09843696z m723.3046875-0.09843777h-68.27343696l-69.67968804-120.81093723h77.77968804a60.44062473 60.44062473 0 0 1 60.27187473 60.25781277v60.55312446h-0.09843777z" p-id="2771" fill="#666666"></path></svg>