<?xml version="1.0" standalone="no"?><!DOCTYPE svg PUBLIC "-//W3C//DTD SVG 1.1//EN" "http://www.w3.org/Graphics/SVG/1.1/DTD/svg11.dtd"><svg t="1624266300874" class="icon" viewBox="0 0 1024 1024" version="1.1" xmlns="http://www.w3.org/2000/svg" p-id="2452" width="100" height="100" xmlns:xlink="http://www.w3.org/1999/xlink"><defs><style type="text/css"></style></defs><path d="M532.99232 356.47978667l-6.77751467 0c0-75.88416 0-135.41269333 0-152.72725334 0-57.10805333-32.768-80.89984-73.09994666-48.45184L77.83050667 457.21738667c-40.33194667 32.45781333-40.30464 85.47968 0.06229333 117.87082666l372.42357333 298.80597334c40.36256 32.36608 75.89834667-0.51669333 75.89834667-48.57962667 0-15.47850667 0-79.50496 0-161.10282667l56.41120427 0c162.85258667 0 287.06517333 70.35509333 363.24746666 206.10090667 14.928 24.63392 30.58453333 19.26208 30.58453334 0C973.21290667 628.44544 768.37461333 356.47978667 532.99232 356.47978667z" p-id="2453" fill="#888888"></path></svg>