<?xml version="1.0" standalone="no"?><!DOCTYPE svg PUBLIC "-//W3C//DTD SVG 1.1//EN" "http://www.w3.org/Graphics/SVG/1.1/DTD/svg11.dtd"><svg t="1624539913401" class="icon" viewBox="0 0 1024 1024" version="1.1" xmlns="http://www.w3.org/2000/svg" p-id="3794" width="100" height="100" xmlns:xlink="http://www.w3.org/1999/xlink"><defs><style type="text/css"></style></defs><path d="M936.064 174.272l-84.352-84.416a85.568 85.568 0 0 0-121.216 0.192L598.656 222.08l-105.6-105.664a85.44 85.44 0 0 0-120.96 0L237.184 251.136l-0.192 0.128c-0.128 0.064-0.064 0.256-0.192 0.32L90.496 397.824a85.76 85.76 0 0 0 0 121.152L169.6 598.016l0.384 0.64 0.64 0.384 127.68 127.744 0.448 0.64 0.64 0.384 127.744 127.68c0.128 0.256 0.192 0.576 0.384 0.704l0.64 0.448 78.976 78.976a85.632 85.632 0 0 0 121.216 0.128l281.536-281.536a85.568 85.568 0 0 0 0-121.024l-105.664-105.728 131.904-131.84a86.016 86.016 0 0 0-0.064-121.344zM587.904 895.36a28.544 28.544 0 0 1-40.32-0.192l-59.328-59.328 50.56-50.368a28.608 28.608 0 0 0-40.448-40.448l-50.56 50.432-88.32-88.448 90.88-90.752a28.8 28.8 0 0 0 0-40.448 28.8 28.8 0 0 0-40.32 0l-91.008 90.816-88.32-88.32 50.496-50.368a28.608 28.608 0 0 0-40.512-40.448l-50.432 50.368-59.136-59.136a28.416 28.416 0 0 1 0-40.384L257.28 312.064l457.088 456.96-126.4 126.336z m307.648-640.32l-131.84 131.968-13.888 13.952-26.56 26.56h0.384l145.92 145.856a28.672 28.672 0 0 1 0 40.448l-114.88 114.88-456.96-456.96L412.608 156.8a28.416 28.416 0 0 1 40.32-0.256l145.664 145.664-0.128 0.32 31.36-31.232 9.088-9.152 131.968-131.84a28.544 28.544 0 0 1 40.32 0l84.48 84.48a28.352 28.352 0 0 1-0.128 40.192z" fill="#888888" p-id="3795"></path></svg>