<?xml version="1.0" standalone="no"?><!DOCTYPE svg PUBLIC "-//W3C//DTD SVG 1.1//EN" "http://www.w3.org/Graphics/SVG/1.1/DTD/svg11.dtd"><svg t="1624247316208" class="icon" viewBox="0 0 1024 1024" version="1.1" xmlns="http://www.w3.org/2000/svg" p-id="1868" width="100" height="100" xmlns:xlink="http://www.w3.org/1999/xlink"><defs><style type="text/css"></style></defs><path d="M875.975111 823.978667a36.010667 36.010667 0 1 1 0 72.021333h-391.964444a36.010667 36.010667 0 1 1 0-72.021333h391.964444z m0-231.992889a36.010667 36.010667 0 1 1 0 72.021333H148.024889a36.010667 36.010667 0 1 1 0-72.021333h727.950222z m0-231.992889a36.010667 36.010667 0 1 1 0 72.021333h-391.964444a36.010667 36.010667 0 0 1 0-72.021333h391.964444z m0-231.992889a36.010667 36.010667 0 1 1 0 72.021333H148.024889a36.010667 36.010667 0 0 1 0-72.021333h727.950222z" p-id="1869" fill="#666666"></path></svg>