<?xml version="1.0" standalone="no"?><!DOCTYPE svg PUBLIC "-//W3C//DTD SVG 1.1//EN" "http://www.w3.org/Graphics/SVG/1.1/DTD/svg11.dtd"><svg t="1624264902109" class="icon" viewBox="0 0 1024 1024" version="1.1" xmlns="http://www.w3.org/2000/svg" p-id="23423" width="100" height="100" xmlns:xlink="http://www.w3.org/1999/xlink"><defs><style type="text/css"></style></defs><path d="M542.23438063 92.28456687L529.57960063 92.28456687l-12.23746313 1e-8-12.88214625 0.74253656-12.07533281 1.614585-12.07533281 1.614585-12.23554407 2.00120344-12.07533281 2.25926812-11.4939675 2.74469906-11.46134906 3.61578844-10.65357656 3.58413-10.686195 3.48723563-10.7188125 5.13252-10.07412938 4.13383687-8.94305625 4.97230875-9.33063375 5.61699188-8.65237406 5.84435718-8.45858531 6.58593469-6.97447125 6.13504031-11.00949563 10.10482875-9.03995062 9.33159282-8.71760907 9.1042275-8.03934937 9.23373937-7.49060156 9.49276406-6.55427625 9.20112188-6.39214594 9.20112187-2.97110531 4.13383688-2.74374 4.97230875-5.97291 8.74926844-4.7459025 8.74926843-4.19811375 8.20051969-3.68006532 8.71760906-3.58317093 7.9750725-3.00276375 7.49060157-2.77731657 7.9750725-2.74374 7.36108875-3.71268281 13.33399968-2.71208156 12.81691032-1.51673156 10.75047093-1.51769063 9.23469844 0 7.07040656 0 5.77816219 0 5.06920313-2.61518719 2.77731656-2.35712156 3.74434125-1.87265062 3.32510531-1.5819675 3.650325-2.06547938 7.84460156-2.19499219 7.23157688-0.74253656 6.45642281-0.51613031 4.74686156 0 5.0999025-5.10086156 7.26515438-3.64840594 7.23157687-2.71208156 6.97351219-2.03382094 6.19931719-1.5819675 6.00552844-1.51673156 5.58533343 0 4.7449425 0 5.23133344 0 4.35736594 0.90274781 3.48819469 1.25962594 6.39118687 1.58100843 4.84279688-2.84063437 2.13263437-8.00673188 5.84339813-10.62191812 9.46014562-6.45642281 5.61699188-6.32882907 5.48939812-4.3909425 4.35736594-3.61578843 3.87385312-7.71700782 8.10458532-7.36108875 8.10362531-5.71388625 6.97351219-6.90923531 10.10674781-6.55427625 9.10326844-6.48999937 10.10482875-5.48939813 9.33159281-4.51949625 9.97627594-4.84279687 9.20112187-3.48723563 9.137805-3.71268281 9.45726844-2.77731656 9.20208094-2.71112157 9.5244225-2.42139843 8.20051968-1.32390282 8.84808094-1.48507312 8.23121906-1.25962594 7.9750725-0.77515406 15.597105 0 14.43053625 0 6.48712219 0.77515406 6.394065 2.03382094 10.81570688 0.70991906 4.74398343 1.32390281 4.844715 1.67886188 4.61638969 1.48507312 3.22725188 2.48567438 6.03814593 1.90526812 1.19726813 1.13011407 2.51733281 1.45245562 0.61302469 0.87204844 0 0.61398375 0 6.3604875-0.61302469 6.48904031-1.64720344 5.48939813-2.06739843 5.77912218-3.64840594 5.19775594-3.35868281 4.7459025-4.35640594 5.10086156-4.58569125 4.358325-4.77660188 4.10026032-5.39346281 3.74434125-4.81113844 3.51985312-4.00144687 2.19499219-4.61734969 4.26143062-7.61723531 1.35556125-3.09965813 0.74253657-1.87265062 0.3875775-2.13263438 1.00060125-1.74121968 0.77515406-0.35591907 1.48507312-0.74253656 0.87204844 0 0.35495906 0.74253656 0.7415775 0 0.7415775 0.35591907 2.4223575 10.36097531 2.58256875 8.33291062 3.48627657 8.7502275 3.48723562 7.84460157 2.97110531 7.84651968 4.55211375 6.84208125 3.35772375 7.23541407 3.71268282 6.65021156 4.32666656 5.71484531 3.29248781 5.48747906 8.71856906 10.23338157 7.58557688 9.1042275 7.33039031 7.07040656 7.26323531 6.36144656 6.26359313 4.97230875 9.33063375 8.10362531 3.74530031 1.77767438 1.22604844 1.74217875 0 0.83943094-0.87108938 0.774195-0.35495906 0-1.87265062 0.61494281-7.00612969 0.51517031-6.48999938 0.8739675-5.48843906 0.70895906-5.74650375 1.25866688-4.97230875 1.51865062-5.00492625 1.48603219-4.32666656 2.25830906-3.48627656 2.13263438-4.3909425 1.35364219-2.71208157 2.22952875-2.97110531 1.74121968-3.163935 2.51925188-3.93813 4.84375594-1.51769062 2.25926812-1.84003219 1.97050406-2.51829281 5.13156094-1.38817875 4.22881313-1.64720344 4.22881312-0.35495906 3.74530031 0 4.87733344 0 2.12879625-0.70991907 3.45653625 0 3.52081313-0.90370687 3.48531656 0 3.09869906 0.90370687 3.35676375 0.70991907 3.00276375 2.0021625 5.87697563 1.38817875 2.71208156 1.77575625 2.74278 1.93788656 2.74374 2.16333281 2.38974 2.80897594 2.74278 2.13167437 2.22952875 6.39118688 4.61638969 6.36144656 3.87385312 7.29585375 3.48915469 7.87817906 3.09774 8.36169094 3.39130031 9.23373938 2.09905688 9.23373937 3.00180468 9.97627594 2.00120344 9.94365844 1.48507313 10.20268218 1.51960968 10.62095907 1.48411407 20.85625968 2.09905687 21.53547938 0.3866175 19.85469844 0 9.33063375 0 8.94305625 0 9.33159281-0.3866175 8.00769094-0.87204844 7.71604875-0.61398375 7.23061781-0.61398375L434.78627094 926.96953063l8.36360906-2.22856876 7.9750725-2.00120343 14.68956094-5.97195094 6.61855219-2.52021094 6.35952843-3.09774 10.46074782-5.71580437 9.49372312-4.61638969 7.00612969-4.3909425 5.0999025-4.61830875 7.9750725 0.8739675 6.19931719 0.61206469 12.23650406 0.90370687 5.71484531 0 4.87445531 0 3.71268282 0.74253656 3.80957718 1.48603219 5.97387 2.12975625 6.68282907 2.26118719 12.72193406 3.80957719 13.01165812 4.61734968 12.65286094 3.64744688 12.7545525 2.45401594 13.04427563 3.26178843 13.49421093 1.90239 12.81691032 1.35843938 12.88310531 1.74121969 11.94486094 1.13011406 12.88310531 0.74253656 12.29886094 0 11.94869906 0 11.36349562 0 11.4939675-1.38817875 11.20232438-0.48447187 10.85024344-1.74121969 9.97339781-2.13167438 9.94557656-2.09905687 9.58869844-2.29380469 4.00336594-1.09845562 4.42164187-1.35556125 8.29741406-3.26082938 7.36204875-3.32510531 6.97351219-3.48627656 6.45834094-3.64840594 5.77624406-4.22977219 2.26118719-2.25830906 2.67946312-3.09965813 3.48723563-4.13287781 3.77599969-5.10278062 1.42175625-2.61518719 0.58040625-2.12879625 1.58004843-2.71399969 0.64660125-3.00084562 0-2.87517094 0.74253657-2.84063438-0.74253657-4.26047156-0.64660125-3.58317094-1.58004843-4.26238968-1.22604844-3.48723563-2.42139844-4.22785312-2.809935-3.90647157-2.80801594-3.32606531-3.71460187-2.87421094-7.61819531-6.48904031-8.58617813-6.26359312-8.61975562-4.93777219-9.07352813-5.13443906-20.82460125-9.978195-4.97326781-2.96822719-1.38817875-1.38913781-0.87013031-0.87013032 10.00889437-9.88130062 4.35640594-4.84087781 3.58413-4.4580975 7.00612969-9.87746344 6.58689375-10.10674781 5.58725156-8.94209719 5.29560937-8.61975563 7.03682907-17.20785281 5.49035718-14.33652 3.67910532-10.10386969 2.09809781-3.35964187 1.22604844-2.70920344 2.22952875-1.614585 0.87013031 0 0.61494281 0.32234156 5.38962563 10.39551188 4.78043906 9.94557656 3.35580469 5.61507281 3.45653625 4.844715 3.45653625 6.00456844 4.42068281 5.87697563 3.71076375 4.06764187 2.22856875 2.25926813 2.25926812 2.00120343 2.03478 1.51865063 1.93692657 1.35460125 4.26238968 2.13071531 2.25926813 0.70991906 1.45245562 0 2.00312157 0 2.25830906-0.70991906 2.77827656-1.41983719 3.09869906-1.35556125 2.58256875-2.22760968 2.38974-2.61422719 2.71112157-3.22917094 2.13071531-2.48567437 2.41947937-4.0379025 1.80933282-3.22725188 2.16141468-4.61638969 1.13395125-3.84219468 3.06608157-9.49372313 2.03382093-10.45978781 1.45341469-11.58990188 1.00060125-6.747105 0-5.58341437 0-6.00840656 0-7.36012969-1.51865062-13.43089406-2.19499219-15.20665032-2.77731656-14.84977218-2.19691032-7.6210725-2.16141468-8.10266625-2.83967438-7.71700782-2.90586937-8.58809718-3.32510532-8.13528469-3.6177075-8.3300325-6.48904031-13.56040594-5.71484531-12.01009687-5.74650375-10.68811313-4.97230875-10.00793437-5.74554469-9.07256907-4.22977219-8.36265-8.87973937-12.46195125-11.23494281-16.59482906-2.58160969-4.10121937-0.90466688-1.74313782 0-1.38721968 1.90334907-5.58437344 2.58448781-4.97326781 2.25926812-9.84772313 1.29128438-5.0999025L851.17659781 437.45278344l0.64564219-4.22977219 0-4.26143063-0.64564219-4.87445531-0.77707312-3.97266656-1.64528438-8.07004875-2.13071531-7.84651969-1.97050406-7.23253594-3.00180469-7.00517062-3.45653625-5.84531719-2.74374-5.48843906-3.03250406-5.23037344-4.71712219-7.74866625-1.74121969-2.71112156-0.54682968-2.38878-2.19595125-14.98024312-1.35747938-9.84772313-1.64528437-12.20484469-2.45401594-12.55884469-3.94004906-14.49577218-2.19499219-8.10362532-1.77575625-6.84495937-2.45401594-7.9750725-2.74374-8.49216188-2.74374-7.84460156-3.51985312-8.45858531-7.2008775-16.33676344-4.19619469-7.74866625-5.16705656-8.84616187-4.80921938-7.62011344-4.77947906-8.55451969-6.84208125-8.00769094-5.71580438-7.71604875-7.00708875-7.9750725-7.1346825-7.23157687-7.2008775-7.00612969-8.52286125-7.23157687-4.45617843-2.61518719-4.22881313-3.6177075-9.20112187-6.35952844-10.62383719-6.84495937-10.84736531-6.23097563-11.20232438-5.58533344-12.23842219-5.13443906-11.46134906-4.84183687-11.97556031-4.22977219-13.10951156-3.51985313-11.94486094-3.13131656-12.72001594-2.71208156-12.04271531-2.84063438-13.01165813-1.38913781-12.72193406-1.54935-12.65573906-1.58100844L542.23438063 92.28360781z" p-id="23424" fill="#666666"></path></svg>