<?xml version="1.0" standalone="no"?><!DOCTYPE svg PUBLIC "-//W3C//DTD SVG 1.1//EN" "http://www.w3.org/Graphics/SVG/1.1/DTD/svg11.dtd"><svg t="1624258020267" class="icon" viewBox="0 0 1024 1024" version="1.1" xmlns="http://www.w3.org/2000/svg" p-id="1569" width="100" height="100" xmlns:xlink="http://www.w3.org/1999/xlink"><defs><style type="text/css"></style></defs><path d="M164.83203143 116.4921875h694.33593714c30.76171857 0 48.33984393 17.57812535 48.33984393 48.33984393 0 35.15624992-17.57812535 48.33984393-48.33984393 48.33984392H164.83203143C134.07031285 217.5664059 116.4921875 199.98828133 116.4921875 164.83203143 116.4921875 134.07031285 134.07031285 116.4921875 164.83203143 116.4921875zM164.83203143 463.66015607h109.86328107c30.76171857 0 48.33984393 17.57812535 48.33984393 48.33984393 0 35.15624992-17.57812535 48.33984393-48.33984393 48.33984393H164.83203143C134.07031285 560.33984393 116.4921875 547.15624992 116.4921875 512c0-30.76171857 17.57812535-48.33984393 48.33984393-48.33984393zM459.26562475 463.66015607h109.86328185c35.15624992 0 48.33984393 17.57812535 48.33984315 48.33984393 0 35.15624992-17.57812535 48.33984393-48.33984315 48.33984393H459.26562475c-35.15624992 0-52.73437525-13.183594-52.7343745-48.33984393 0-30.76171857 17.57812535-48.33984393 52.7343745-48.33984393zM749.3046875 463.66015607h109.86328107c30.76171857 0 48.33984393 17.57812535 48.33984393 48.33984393 0 35.15624992-17.57812535 48.33984393-48.33984392 48.33984393h-109.86328108c-35.15624992 0-48.33984393-17.57812535-48.33984393-48.33984393 0-30.76171857 13.183594-48.33984393 48.33984393-48.33984393zM164.83203143 810.82812465h694.33593714c35.15624992 0 48.33984393 17.57812535 48.33984393 48.33984393 0 35.15624992-17.57812535 48.33984393-48.33984393 48.33984392H164.83203143C134.07031285 907.5078125 116.4921875 889.92968715 116.4921875 859.16796857c0-35.15624992 17.57812535-48.33984393 48.33984393-48.33984392z" fill="#666666" p-id="1570"></path></svg>