<?xml version="1.0" standalone="no"?><!DOCTYPE svg PUBLIC "-//W3C//DTD SVG 1.1//EN" "http://www.w3.org/Graphics/SVG/1.1/DTD/svg11.dtd"><svg t="1624265623096" class="icon" viewBox="0 0 1146 1024" version="1.1" xmlns="http://www.w3.org/2000/svg" p-id="2451" width="111.9140625" height="100" xmlns:xlink="http://www.w3.org/1999/xlink"><defs><style type="text/css"></style></defs><path d="M908.648 962H223.352A161.352 161.352 0 0 1 62 800.936V223.064A161.352 161.352 0 0 1 223.352 62h685.224a161.352 161.352 0 0 1 161.352 161.064v577.8a161.424 161.424 0 0 1-161.28 161.136zM223.424 126.8A96.768 96.768 0 0 0 126.656 223.352v577.8a96.768 96.768 0 0 0 96.768 96.552h685.224a96.768 96.768 0 0 0 96.768-96.552V223.064A96.768 96.768 0 0 0 908.648 126.512z" p-id="2452" fill="#666666"></path><path d="M257.12 385.712a101.232 101.232 0 0 0 202.464 0 101.232 101.232 0 0 0-202.464 0z" p-id="2453" fill="#666666"></path><path d="M225.8 816.704a30.168 30.168 0 0 1-19.584-7.2 36 36 0 0 1-4.968-48.096 289.152 289.152 0 0 1 124.56-98.784 225.432 225.432 0 0 1 147.456 7.632c40.68 11.592 75.96 21.6 100.8 5.76a178.272 178.272 0 0 0 48.672-58.824 236.88 236.88 0 0 1 168.192-125.64 149.184 149.184 0 0 1 130.32 61.56 36 36 0 0 1-2.16 48.168 30.024 30.024 0 0 1-44.64-2.304 92.232 92.232 0 0 0-78.768-39.456 178.416 178.416 0 0 0-120.24 94.824 232.344 232.344 0 0 1-69.408 80.352 176.04 176.04 0 0 1-148.968 1.656 178.776 178.776 0 0 0-109.872-9.432 226.224 226.224 0 0 0-96.624 77.112 30.816 30.816 0 0 1-24.624 12.672z" p-id="2454" fill="#666666"></path></svg>