<?xml version="1.0" standalone="no"?><!DOCTYPE svg PUBLIC "-//W3C//DTD SVG 1.1//EN" "http://www.w3.org/Graphics/SVG/1.1/DTD/svg11.dtd"><svg t="1624252461108" class="icon" viewBox="0 0 1024 1024" version="1.1" xmlns="http://www.w3.org/2000/svg" p-id="1897" width="100" height="100" xmlns:xlink="http://www.w3.org/1999/xlink"><defs><style type="text/css"></style></defs><path d="M891.6669292 131.63292705a258.56076445 258.56076445 0 0 0-366.35312637 13.43294736L416.01845323 254.36122403a37.95042656 37.95042656 0 0 0 53.68482333 53.68482334l109.29534961-109.29534874a173.12533682 173.12533682 0 1 1 243.48392402 243.48392403l-109.2953496 109.29534961a37.05802823 37.05802823 0 0 0 0 53.68482333 37.05802823 37.05802823 0 0 0 53.68482422 0l109.29534961-109.29534961a254.70935947 254.70935947 0 0 0 15.49955478-364.28651894zM552.32060381 714.46317646l-109.29534961 109.29534961a173.12533682 173.12533682 0 1 1-243.48392402-243.48392402l109.29534873-109.29534961a37.95042656 37.95042656 0 1 0-53.68482334-53.68482334L145.85650596 526.58977871a258.56076445 258.56076445 0 0 0-13.43294737 366.35312637 239.06889932 239.06889932 0 0 0 170.63601329 68.99650576 276.31480078 276.31480078 0 0 0 195.62317646-82.47642188l109.29534961-109.29534961a37.05802823 37.05802823 0 0 0 0-53.68482333 39.4064455 39.4064455 0 0 0-55.65749414-1.92570293z" fill="#777777" p-id="1898"></path><path d="M621.31710958 348.39185997l-272.41642794 272.41642792a37.95042656 37.95042656 0 1 0 53.68482334 53.68482334l270.34982051-270.34982051a37.05802823 37.05802823 0 0 0 0-53.68482334 33.58236972 33.58236972 0 0 0-51.61821592-2.06660742z" fill="#777777" p-id="1899"></path></svg>