<?xml version="1.0" standalone="no"?><!DOCTYPE svg PUBLIC "-//W3C//DTD SVG 1.1//EN" "http://www.w3.org/Graphics/SVG/1.1/DTD/svg11.dtd"><svg t="1624073563676" class="icon" viewBox="0 0 1024 1024" version="1.1" xmlns="http://www.w3.org/2000/svg" p-id="30211" width="100" height="100" xmlns:xlink="http://www.w3.org/1999/xlink"><defs><style type="text/css"></style></defs><path d="M695.68 620.586667A213.226667 213.226667 0 0 1 512 725.333333c-117.824 0-213.333333-95.509333-213.333333-213.333333s95.509333-213.333333 213.333333-213.333333a212.693333 212.693333 0 0 1 151.466667 63.125333 32 32 0 0 1 61.866666 11.541333V533.333333a64 64 0 0 0 128 0v-21.333333c0-188.522667-152.810667-341.333333-341.333333-341.333333S170.666667 323.477333 170.666667 512s152.810667 341.333333 341.333333 341.333333c68.202667 0 131.754667-20.010667 185.066667-54.464a32 32 0 0 1 34.261333 54.08A403.434667 403.434667 0 0 1 512 917.333333C288.149333 917.333333 106.666667 735.850667 106.666667 512S288.149333 106.666667 512 106.666667s405.333333 181.482667 405.333333 405.333333v21.333333a128 128 0 0 1-221.653333 87.253334zM512 661.333333a149.333333 149.333333 0 1 0 0-298.666666 149.333333 149.333333 0 0 0 0 298.666666z" p-id="30212" fill="#666666"></path></svg>