<?xml version="1.0" standalone="no"?><!DOCTYPE svg PUBLIC "-//W3C//DTD SVG 1.1//EN" "http://www.w3.org/Graphics/SVG/1.1/DTD/svg11.dtd"><svg t="1624540081331" class="icon" viewBox="0 0 1024 1024" version="1.1" xmlns="http://www.w3.org/2000/svg" p-id="4326" width="100" height="100" xmlns:xlink="http://www.w3.org/1999/xlink"><defs><style type="text/css"></style></defs><path d="M793.24972534 90.125H230.75027466C151.99972534 90.125 90.125 151.99972534 90.125 230.75027466v562.49945068C90.125 872.00027466 151.99972534 933.875 230.75027466 933.875h562.49945068C872.00027466 933.875 933.875 872.00027466 933.875 793.24972534V230.75027466C933.875 151.99972534 872.00027466 90.125 793.24972534 90.125zM877.84472656 792.69024658C877.84472656 837.66607666 838.49005127 877.02075195 793.51422119 877.02075195H231.30975342C186.33392334 877.02075195 146.97924805 837.66607666 146.97924805 792.69024658V230.48577881C146.97924805 185.50994873 186.33392334 146.15527344 231.30975342 146.15527344h562.20446777C838.49005127 146.15527344 877.84472656 185.50994873 877.84472656 230.48577881v562.20446777zM421.52758789 563.2512207L259.03979492 725.73901367V624.88452148c0-16.80908203-11.20605469-28.01513672-28.01513672-28.01513671s-28.01513672 11.20605469-28.01513672 28.01513671v168.09082032c0 16.80908203 11.20605469 28.01513672 28.01513672 28.01513672h168.09082032c16.80908203 0 28.01513672-11.20605469 28.01513671-28.01513672s-11.20605469-28.01513672-28.01513671-28.01513672H298.26098633l162.48779297-162.48779297c11.20605469-11.20605469 11.20605469-28.01513672 0-39.22119141-11.20605469-11.20605469-28.01513672-11.20605469-39.22119141 0zM792.9753418 203.00952148H624.88452148c-16.80908203 0-28.01513672 11.20605469-28.01513671 28.01513672s11.20605469 28.01513672 28.01513671 28.01513672h100.85449219L563.2512207 421.52758789c-11.20605469 11.20605469-11.20605469 28.01513672 0 39.22119141 11.20605469 11.20605469 28.01513672 11.20605469 39.22119141 0L764.96020508 298.26098633V399.11547852c0 16.80908203 11.20605469 28.01513672 28.01513672 28.01513671s28.01513672-11.20605469 28.01513672-28.01513671V231.0246582c0-16.80908203-11.20605469-28.01513672-28.01513672-28.01513672z" p-id="4327" fill="#888888"></path></svg>