<?xml version="1.0" standalone="no"?><!DOCTYPE svg PUBLIC "-//W3C//DTD SVG 1.1//EN" "http://www.w3.org/Graphics/SVG/1.1/DTD/svg11.dtd"><svg t="1624284150903" class="icon" viewBox="0 0 1024 1024" version="1.1" xmlns="http://www.w3.org/2000/svg" p-id="2514" width="100" height="100" xmlns:xlink="http://www.w3.org/1999/xlink"><defs><style type="text/css"></style></defs><path d="M84.4592 910.7312l0-40.4448 23.52 0c18.7056 0 34.5216-10.728 47.4576-32.1888 9.624-12.648 16.92-27.3696 21.8736-44.1552L393.968 96.1088l92.8512 0 219.5424 697.8336c6.8736 21.4608 14.2992 36.1824 22.2864 44.1552 12.6528 21.4608 27.2352 32.1888 43.7424 32.1888l25.1712 0 0 40.4448L469.8992 910.7312l0-40.4448 16.92 0c16.5072 0 29.9808-4.536 40.4448-13.6176 7.9776-6.048 11.9664-14.5776 11.9664-25.584 0-4.128-1.0992-10.8672-3.3024-20.2224l-44.1552-146.9088L285.4352 663.9536l-43.7424 131.6448c-5.7792 23.9328-8.6688 37.0032-8.6688 39.2016 0 1.3776 1.2384 5.7792 3.7152 13.2048 0.8256 5.232 4.7472 10.2528 11.76 15.0672s13.1328 7.2192 18.3648 7.2192l22.2864 0 0 40.4448L84.4592 910.736zM302.3552 601.2272l170.8464 0L388.6016 334.2272 302.3552 601.2272z" p-id="2515" fill="#666666"></path><path d="M704.5568 875.5136c83.28-74.5776 132.5856-132.1728 132.5856-179.4096 0-31.0704-16.9872-49.7136-45.9936-49.7136-22.3728 0-41.016 14.5008-56.3472 31.4928l-33.144-33.1488c28.176-29.832 55.5168-46.4064 97.368-46.4064 58.008 0 96.5376 37.296 96.5376 94.4736 0 55.5168-45.9888 115.1808-101.9232 169.8768 15.3264-1.6608 35.6304-3.3168 49.7184-3.3168l66.7056 0 0 51.3792-205.5072 0L704.5568 875.5136z" p-id="2516" fill="#666666"></path></svg>