<?xml version="1.0" standalone="no"?><!DOCTYPE svg PUBLIC "-//W3C//DTD SVG 1.1//EN" "http://www.w3.org/Graphics/SVG/1.1/DTD/svg11.dtd"><svg t="1635824725587" class="icon" viewBox="0 0 1024 1024" version="1.1" xmlns="http://www.w3.org/2000/svg" p-id="6172" xmlns:xlink="http://www.w3.org/1999/xlink" width="64" height="64"><defs><style type="text/css"></style></defs><path d="M871.82222223 332.8c0 38.4-6.4 70.4-25.6 96-6.4 12.8-19.2 19.2-32 25.6-12.8 6.4-32 6.4-44.8-6.4-6.4-6.4-19.2-12.8-25.6-25.6-19.2-12.8-38.4-25.6-57.6-32-6.4 0-6.4-6.4-12.8 0-6.4 0-12.8 0-19.2 6.4l-6.4 6.4c0 6.4 0 6.4-6.4 6.4-12.8 6.4-19.2 12.8-32 19.2-19.2 19.2-25.6 38.4-25.6 70.4 6.4 12.8 12.8 25.6 32 32 6.4 0 12.8 6.4 12.8 6.4 25.6 0 44.8 6.4 70.4 6.4h32c38.4 0 76.8 12.8 102.4 44.8 12.8 12.8 19.2 25.6 19.2 44.8 0 6.4 0 12.8-6.4 19.2V672c-6.4 0-6.4 6.4-6.4 6.4-6.4 6.4-12.8 19.2-19.2 25.6l-6.4 6.4c-12.8 19.2-38.4 32-57.6 44.8-6.4 6.4-12.8 6.4-19.2 12.8h-12.8-6.4c-12.8 6.4-25.6 12.8-32 25.6-6.4 0-6.4 6.4-6.4 6.4-6.4 6.4-12.8 12.8-19.2 12.8h-6.4l25.6-6.4h-6.4c-25.6 12.8-51.2 32-76.8 44.8-12.8 6.4-32 19.2-44.8 25.6-6.4 0-6.4 6.4-12.8 6.4-6.4 6.4-19.2 12.8-32 12.8-19.2 0-32 6.4-51.2 6.4h-12.8l6.4-6.4c19.2 6.4 25.6 0 38.4-6.4 6.4-6.4 19.2-6.4 25.6-12.8l6.4-6.4h-12.8c-12.8 6.4-19.2 12.8-32 12.8-6.4 6.4-19.2 6.4-25.6 12.8-12.8 0-19.2 6.4-25.6 6.4-6.4 6.4-12.8 6.4-25.6 6.4s-25.6 6.4-38.4 12.8c-6.4 6.4-19.2 6.4-25.6 12.8l19.2-12.8c-12.8 0-19.2 0-32 6.4-32 12.8-64 32-96 44.8-12.8 6.4-32 19.2-44.8 25.6-6.4 6.4-12.8 12.8-19.2 12.8H142.22222223c-6.4 0-19.2 6.4-25.6 6.4H103.82222223c6.4-6.4 12.8-12.8 25.6-19.2 12.8-6.4 32-12.8 44.8-19.2 6.4 0 6.4-6.4 6.4-6.4-12.8 0-19.2 6.4-32 12.8 6.4-6.4 19.2-12.8 32-19.2 12.8-6.4 25.6-6.4 38.4-12.8 12.8-6.4 25.6-12.8 38.4-12.8-6.4 0-6.4 6.4-12.8 6.4s-12.8 6.4-12.8 6.4h-6.4c-6.4 0 0 0 0 6.4 6.4 0 19.2 0 25.6-6.4 6.4 0 12.8-6.4 19.2-12.8 6.4-6.4 6.4-6.4 12.8-6.4 0 0 6.4 0 0-6.4v-6.4s6.4 0 6.4-6.4c12.8-6.4 19.2-12.8 32-12.8 6.4 0 12.8-6.4 12.8 0h6.4c6.4 0 12.8 0 19.2-6.4 6.4-6.4 19.2-6.4 25.6-12.8 6.4 0 6.4-6.4 12.8-6.4l6.4-6.4h-12.8c-6.4 0-19.2 6.4-25.6 12.8-6.4 6.4-12.8 6.4-25.6 12.8h6.4-19.2c6.4-6.4 19.2-6.4 25.6-12.8 6.4-6.4 12.8-6.4 19.2-12.8l19.2-19.2 6.4-6.4c12.8 0 19.2 0 25.6-6.4l6.4-6.4c-6.4 0-19.2 0-25.6 6.4-19.2 6.4-32 6.4-44.8 19.2-6.4 6.4-12.8 6.4-12.8 12.8h-6.4c-6.4 0-6.4 0-6.4 6.4h-6.4c-25.6 6.4-51.2 19.2-76.8 25.6h-6.4c19.2-19.2 44.8-32 64-51.2 6.4-6.4 6.4-6.4 19.2-6.4h19.2c19.2 0 32 0 51.2-6.4 6.4-6.4 12.8-6.4 19.2-6.4 12.8 0 19.2-6.4 25.6-19.2v-6.4h-6.4c6.4-6.4 12.8-6.4 19.2-12.8 6.4 0 6.4-6.4 12.8-6.4 25.6-25.6 51.2-44.8 83.2-57.6 6.4-6.4 19.2-6.4 25.6-12.8 6.4 0 6.4-6.4 12.8-6.4l38.4-19.2c19.2-12.8 44.8-25.6 64-38.4 12.8-12.8 25.6-19.2 32-32 6.4-6.4 0-12.8-6.4-12.8-6.4-6.4-12.8-6.4-12.8-12.8-6.4-6.4-19.2-6.4-25.6-6.4-32-12.8-57.6-12.8-83.2-12.8-19.2 0-32 0-51.2-6.4-12.8-6.4-25.6-12.8-32-25.6l-6.4-6.4c-6.4-6.4-12.8-19.2-12.8-25.6-6.4-12.8-6.4-25.6 0-38.4 0-32 19.2-64 38.4-89.6l38.4-38.4c19.2-12.8 32-19.2 44.8-25.6 12.8-6.4 32-12.8 51.2-19.2 19.2-6.4 38.4-6.4 57.6 0 6.4 0 12.8 0 25.6 6.4h32c12.8-6.4 25.6-6.4 38.4-12.8 6.4-6.4 12.8-6.4 19.2-12.8v6.4l25.6-19.2c0 6.4 6.4 6.4 6.4 12.8v51.2z" fill="#3E91FB" p-id="6173"></path><path d="M635.02222223 25.6s0 6.4 0 0c0 12.8-6.4 25.6-12.8 32-6.4 19.2-12.8 32-19.2 44.8l25.6-32c0 6.4 0 19.2-6.4 25.6-6.4 6.4-6.4 12.8-12.8 19.2v6.4c0 6.4 0 12.8-6.4 19.2v6.4l6.4-6.4c6.4 0 6.4-6.4 12.8-12.8 0 0 6.4 0 6.4-6.4h6.4v19.2c-6.4 6.4-12.8 19.2-12.8 25.6 0 6.4-6.4 6.4-6.4 6.4 0 6.4-6.4 12.8-6.4 19.2-12.8 25.6-25.6 44.8-38.4 64-25.6 38.4-44.8 76.8-64 121.6-19.2 57.6-38.4 115.2-57.6 179.2-6.4 25.6-6.4 51.2-12.8 83.2v57.6c0 12.8-12.8 19.2-25.6 19.2h-32c0-12.8-6.4-19.2-12.8-25.6-6.4-6.4-19.2-12.8-25.6-19.2-12.8-6.4-12.8-19.2-12.8-32v-19.2c0-12.8 0-25.6-6.4-38.4l-19.2-64 12.8 32v-12.8c0-25.6-6.4-44.8-12.8-64-6.4-19.2-19.2-38.4-32-57.6 0-6.4-6.4-12.8-6.4-19.2v12.8c0-6.4-6.4-12.8-6.4-12.8-6.4-25.6-19.2-51.2-25.6-70.4 0-6.4-6.4-12.8-12.8-19.2v-12.8c-6.4 0-12.8-6.4-12.8-6.4 0-6.4-6.4-6.4-12.8-6.4 0-6.4 0-19.2-6.4-25.6v-12.8c6.4-6.4 6.4-12.8 6.4-25.6v-6.4c0-6.4 0-6.4 6.4-6.4s6.4-6.4 6.4-12.8 0-6.4 6.4-12.8l6.4-6.4v-12.8c6.4 0 6.4 0 12.8 6.4s19.2 0 25.6-6.4c6.4-6.4 6.4-6.4 12.8 0s12.8 6.4 19.2 0c6.4 0 6.4 0 6.4 6.4v6.4h6.4c0 6.4 6.4 12.8 6.4 12.8 6.4 6.4 12.8 19.2 12.8 32 0 19.2 6.4 32 6.4 51.2 6.4 32 19.2 64 25.6 96 6.4 32 19.2 64 25.6 96v6.4l6.4-6.4c19.2-51.2 38.4-96 51.2-140.8 19.2-44.8 32-89.6 51.2-134.4 6.4-12.8 12.8-32 25.6-44.8 6.4-6.4 12.8-6.4 12.8-12.8v6.4l38.4-38.4v25.6l6.4-6.4c12.8-12.8 25.6-32 32-44.8 12.8-19.2 19.2-38.4 32-57.6l12.8-12.8v6.4c-6.4 6.4-6.4 12.8-12.8 19.2z" fill="#FF0F50" p-id="6174"></path></svg>