<?xml version="1.0" standalone="no"?><!DOCTYPE svg PUBLIC "-//W3C//DTD SVG 1.1//EN" "http://www.w3.org/Graphics/SVG/1.1/DTD/svg11.dtd"><svg t="1635843001522" class="icon" viewBox="0 0 1024 1024" version="1.1" xmlns="http://www.w3.org/2000/svg" p-id="7046" width="64" height="64" xmlns:xlink="http://www.w3.org/1999/xlink"><defs><style type="text/css"></style></defs><path d="M136.99999971 905.75h768.75000029a18.74999971 18.74999971 0 0 1 0 37.50000029H136.99999971a18.74999971 18.74999971 0 0 1 0-37.50000029z" fill="#cccccc" p-id="7047"></path><path d="M418.24999971 99.50000029m75.00000058 0l56.25 0q74.99999971 0 74.99999971 74.99999971l0 600.00000029q0 74.99999971-74.99999971 74.99999971l-56.25 0q-74.99999971 0-75.00000058-74.99999971l0-600.00000029q0-74.99999971 75.00000058-74.99999971Z" fill="#439dff" p-id="7048"></path><path d="M680.75 474.49999971m74.99999971 0l56.25 0q74.99999971 0 75.00000058 75.00000058l0 225q0 74.99999971-75.00000058 74.99999971l-56.25 0q-74.99999971 0-74.99999971-74.99999971l0-225q0-74.99999971 74.99999971-75.00000058Z" fill="#a4bb37" p-id="7049"></path><path d="M155.75000029 326.97500029m74.99999971 0l56.25 0q74.99999971 0 74.99999971 74.99999971l0 375.00000029q0 74.99999971-74.99999971 74.99999971l-56.25 0q-74.99999971 0-74.99999971-74.99999971l0-375.00000029q0-74.99999971 74.99999971-74.99999971Z" fill="#ff705f" p-id="7050"></path></svg>