<?xml version="1.0" standalone="no"?><!DOCTYPE svg PUBLIC "-//W3C//DTD SVG 1.1//EN" "http://www.w3.org/Graphics/SVG/1.1/DTD/svg11.dtd"><svg t="1679451068930" class="icon" viewBox="0 0 1024 1024" version="1.1" xmlns="http://www.w3.org/2000/svg" p-id="13237" width="64" height="64" xmlns:xlink="http://www.w3.org/1999/xlink"><path d="M0 0h1024v1024H0V0z" fill="#ffffff" opacity=".0" p-id="13238"></path><path d="M682.666667 785.885867c0-25.6 14.677333-48.674133 36.0448-62.805334A375.125333 375.125333 0 0 0 887.466667 409.6c0-207.36-168.106667-375.466667-375.466667-375.466667S136.533333 202.24 136.533333 409.6a375.125333 375.125333 0 0 0 168.7552 313.480533c21.367467 14.1312 36.0448 37.205333 36.0448 62.805334V819.2a34.133333 34.133333 0 0 0 34.133334 34.133333h273.066666a34.133333 34.133333 0 0 0 34.133334-34.133333v-33.314133z" fill="#FF7744" p-id="13239"></path><path d="M375.466667 785.066667a68.266667 68.266667 0 1 0 0 136.533333c18.8416 0 33.450667 16.1792 42.496 32.733867A68.266667 68.266667 0 0 0 477.866667 989.866667h68.266666a68.266667 68.266667 0 0 0 59.938134-35.5328C615.082667 937.7792 629.691733 921.6 648.533333 921.6a68.266667 68.266667 0 1 0 0-136.533333h-273.066666z" fill="#FFAA44" p-id="13240"></path><path d="M334.506667 344.746667a51.2 51.2 0 0 1 71.68-10.24l105.813333 79.36L617.813333 334.506667a51.2 51.2 0 1 1 61.44 81.92l-116.053333 87.04V648.533333a51.2 51.2 0 1 1-102.4 0v-145.066666l-116.053333-87.04a51.2 51.2 0 0 1-10.24-71.68z" fill="#FFFFFF" p-id="13241"></path></svg>