<?xml version="1.0" standalone="no"?><!DOCTYPE svg PUBLIC "-//W3C//DTD SVG 1.1//EN" "http://www.w3.org/Graphics/SVG/1.1/DTD/svg11.dtd"><svg t="1635825270381" class="icon" viewBox="0 0 1024 1024" version="1.1" xmlns="http://www.w3.org/2000/svg" p-id="6382" width="64" height="64" xmlns:xlink="http://www.w3.org/1999/xlink"><defs><style type="text/css"></style></defs><path d="M611.31007785 513.12499973h94.5c110.53125 0 205.80468777 80.50781277 227.53125027 192.30468777 21.79687473 111.796875-588.515625 112.99218777-561.09375 0 27.56250027-113.0625 126.07031277-192.30468777 239.06249973-192.30468777z" fill="#6DD400" p-id="6383"></path><path d="M653.70851535 628.50781223a32.2734375 32.2734375 0 0 0 28.82812527-17.85937446 260.5078125 260.5078125 0 0 0 29.03906278-116.71875054H595.91164035c0 38.88281223 9.63281277 77.76562527 28.96875055 116.71875054a32.13281223 32.13281223 0 0 0 28.82812445 17.85937446z" fill="#FBFEF7" p-id="6384"></path><path d="M654.06007813 445.83593723c85.21875 0 154.26562473-77.48437473 154.26562472-173.03906223 0-47.74218723 8.2265625-103.28906277-19.6171875-134.578125C760.79445312 106.71875027 700.74757785 90.125 654.06007813 90.125c-46.68749973 0-116.57812527 11.24999973-144.84375028 48.09375-23.4140625 30.23437473-9.42187527 91.40624973-9.42187445 134.578125 0 95.62499973 69.04687473 172.96875 154.26562473 172.96875z" fill="#4D3010" p-id="6385"></path><path d="M595.70070285 479.515625c-36.4921875-18.984375-65.03906223-55.40625027-78.46875-100.54687527-20.8828125-12.0234375-42.67968723-38.88281223-37.3359375-67.7109375 4.92187473-26.29687527 19.1953125-36.00000027 33.75-36.42187446 10.89843777-29.25000027 27.84375-50.13281277 59.41406277-58.71093804 31.57031277-8.6484375 24.18750027 1.265625 43.52343723-10.61718723 19.26562473-11.95312527 17.9296875-26.43749973 67.078125-34.45312473 49.07812527-8.08593723 105.96093723 22.50000027 114.46875027 92.10937446 0.14062527 1.33593723 0 2.60156223-0.07031222 3.86718804v8.2265625c13.00781277 2.109375 25.03125027 12.30468723 29.46093695 35.99999946 5.41406277 29.03906277-16.875 56.17968723-37.89843695 68.1328125-13.5 44.85937527-42.04687473 81.14062527-78.32812555 100.12500027v33.60937473c-19.26562473 25.66406277-38.53125027 38.46093723-57.796875 38.46093804-19.33593777 0-38.6015625-12.79687527-57.86718723-38.46093804v-33.60937473z" fill="#EFC89B" p-id="6386"></path><path d="M378.78664063 583.71875h113.6953125c133.03125027 0 247.57031277 98.15624973 273.72656277 234.5625 26.22656223 136.40625027-708.04687527 137.953125-675 0 33.04687527-137.88281277 151.59375027-234.63281223 287.57812473-234.63281223z" fill="#FAB727" p-id="6387"></path><path d="M428.7085159 718.296875a37.61718723 37.61718723 0 0 0 33.75-20.8828125c22.50000027-45.42187473 33.75-90.77343723 33.75-136.12499973h-135c0 45.3515625 11.24999973 90.703125 33.89062445 136.12499973 6.328125 12.79687527 19.33593777 20.8828125 33.60937555 20.8828125z" fill="#FFFFFF" p-id="6388"></path><path d="M429.06007785 505.17968777c99.42187473 0 179.99999973-90.42187527 180.00000055-201.8671875 0-55.6875 9.63281277-120.51562473-22.85156305-157.07812527C553.65382813 109.53125 483.5522659 90.125 429.06007785 90.125c-54.49218723 0-136.0546875 13.21875027-169.10156195 56.109375-27.2109375 35.36718777-10.89843777 106.66406277-10.89843778 157.07812527 0 111.44531223 80.578125 201.79687527 179.99999973 201.79687446z" fill="#784915" p-id="6389"></path><path d="M360.9975784 544.41406277c-42.53906277-22.1484375-75.86718777-64.68750027-91.546875-117.21093777-24.32812473-14.06250027-49.78125-45.42187473-43.59375028-79.03125027 5.76562473-30.72656277 22.42968723-42.04687473 39.37500028-42.53906196 12.72656223-34.10156277 32.55468723-58.49999973 69.3984375-68.48437527 36.77343723-10.125 28.19531277 1.40625027 50.69531222-12.37500027 22.50000027-13.85156277 20.95312473-30.86718723 78.2578125-40.21874946 57.375-9.42187527 123.75000027 26.3671875 133.59374973 107.578125 0.2109375 1.40625027 0 2.88281277-0.07031223 4.4296875v9.56249973c15.1875 2.39062473 29.25000027 14.41406223 34.3828125 42.04687473 6.328125 33.82031223-19.68749973 65.46093723-44.22656277 79.45312527-15.75000027 52.3125-49.00781223 94.64062527-91.40624973 116.78906277v39.234375c-22.50000027 29.953125-44.99999973 44.85937527-67.5 44.85937446-22.42968723 0-44.99999973-14.90625027-67.5-44.85937446v-39.234375h0.14062528z" fill="#F5D6B2" p-id="6390"></path></svg>