<?xml version="1.0" standalone="no"?><!DOCTYPE svg PUBLIC "-//W3C//DTD SVG 1.1//EN" "http://www.w3.org/Graphics/SVG/1.1/DTD/svg11.dtd"><svg t="1635825471254" class="icon" viewBox="0 0 1024 1024" version="1.1" xmlns="http://www.w3.org/2000/svg" p-id="6665" width="64" height="64" xmlns:xlink="http://www.w3.org/1999/xlink"><defs><style type="text/css"></style></defs><path d="M654.22222222 340.70755555m-244.28088889 0a244.28088889 244.28088889 0 1 0 488.56177778 0 244.28088889 244.28088889 0 1 0-488.56177778 0Z" fill="#e4f7ff" p-id="6666"></path><path d="M817.03822222 942.64888889H205.48266667c-47.104 0-85.33333333-38.22933333-85.33333334-85.33333334V163.49866667c0-47.104 38.22933333-85.33333333 85.33333334-85.33333334h611.55555555c47.104 0 85.33333333 38.22933333 85.33333333 85.33333334v693.81688888c0 46.99022222-38.34311111 85.33333333-85.33333333 85.33333334zM205.48266667 135.05422222c-15.70133333 0-28.44444445 12.74311111-28.44444445 28.44444445v693.81688888c0 15.70133333 12.74311111 28.44444445 28.44444445 28.44444445h611.55555555c15.70133333 0 28.44444445-12.74311111 28.44444445-28.44444445V163.49866667c0-15.70133333-12.74311111-28.44444445-28.44444445-28.44444445H205.48266667z" fill="#cbcbcb" p-id="6667"></path><path d="M585.50044445 621.22666667H290.24711111c-15.70133333 0-28.44444445-12.74311111-28.44444444-28.44444445s12.74311111-28.44444445 28.44444444-28.44444444h295.25333334c15.70133333 0 28.44444445 12.74311111 28.44444444 28.44444444s-12.74311111 28.44444445-28.44444444 28.44444445zM691.08622222 471.49511111H290.24711111c-15.70133333 0-28.44444445-12.74311111-28.44444444-28.44444444s12.74311111-28.44444445 28.44444444-28.44444445h400.83911111c15.70133333 0 28.44444445 12.74311111 28.44444445 28.44444445s-12.74311111 28.44444445-28.44444445 28.44444444zM733.63911111 770.95822222H290.24711111c-15.70133333 0-28.44444445-12.74311111-28.44444444-28.44444444s12.74311111-28.44444445 28.44444444-28.44444445h443.27822222c15.70133333 0 28.44444445 12.74311111 28.44444445 28.44444445s-12.62933333 28.44444445-28.33066667 28.44444444z" fill="#cbcbcb" p-id="6668"></path><path d="M312.66133333 307.76888889m-50.51733333 0a50.51733333 50.51733333 0 1 0 101.03466667 0 50.51733333 50.51733333 0 1 0-101.03466667 0Z" fill="#cbcbcb" p-id="6669"></path></svg>