<?xml version="1.0" standalone="no"?><!DOCTYPE svg PUBLIC "-//W3C//DTD SVG 1.1//EN" "http://www.w3.org/Graphics/SVG/1.1/DTD/svg11.dtd"><svg t="1681466389396" class="icon" viewBox="0 0 1112 1024" version="1.1" xmlns="http://www.w3.org/2000/svg" p-id="4114" width="69.5" height="64" xmlns:xlink="http://www.w3.org/1999/xlink"><path d="M548.91729336 961.69924795a112.78195488 112.78195488 0 0 1-82.33082754-35.71428516l-69.81202969-74.47368427a37.81954863 37.81954863 0 0 0-27.44360947-11.87969942H287.56390977a225.82706748 225.82706748 0 0 1-225.56390977-225.56390977V287.60150411a225.82706748 225.82706748 0 0 1 225.56390977-225.56390977h526.31578916a225.82706748 225.82706748 0 0 1 225.56390976 225.56390977v326.39097743a225.82706748 225.82706748 0 0 1-225.56390976 225.56390977h-89.66165362a37.59398526 37.59398526 0 0 0-28.27067695 12.78195468l-62.21804502 70.97744356A113.0451126 113.0451126 0 0 1 550.72180479 961.73684229zM287.56390977 137.22556396a150.56391006 150.56391006 0 0 0-150.37594014 150.37594014v326.39097744a150.56391006 150.56391006 0 0 0 150.37594014 150.37593926h81.76691689a113.15789472 113.15789472 0 0 1 82.33082754 35.71428603l69.81202968 74.58646641a38.64661612 38.64661612 0 0 0 28.0451127 11.87969853 37.10526328 37.10526328 0 0 0 27.66917373-12.78195468l62.21804502-70.97744355a112.78195488 112.78195488 0 0 1 84.81202998-38.42105274H813.87969893a150.37594013 150.37594013 0 0 0 150.37594013-150.37593926V287.60150411a150.37594013 150.37594013 0 0 0-150.37594013-150.37594015z" p-id="4115" fill="#aaaaaa"></path><path d="M743.09022529 488.76691748a34.17293232 34.17293232 0 0 1-12.10526279-7.85714326 47.93233096 47.93233096 0 0 1-8.2330831-12.33082705 36.24060146 36.24060146 0 0 1-2.7067667-14.3984962 35.41353398 35.41353398 0 0 1 2.7067667-14.17293193 47.48120332 47.48120332 0 0 1 8.2330831-12.48120351 36.31578926 36.31578926 0 0 1 12.10526279-7.85714238 36.84210557 36.84210557 0 0 1 40.86466172 7.85714238 39.96240645 39.96240645 0 0 1 8.27067656 12.48120351 36.01503721 36.01503721 0 0 1 2.66917325 14.17293193 36.84210557 36.84210557 0 0 1-2.66917325 14.3984962 40.22556416 40.22556416 0 0 1-8.27067656 12.33082705 38.42105273 38.42105273 0 0 1-26.69172891 10.9398498 36.42857138 36.42857138 0 0 1-14.17293281-3.08270654z m-433.94736797 3.00751875a37.59398526 37.59398526 0 1 1 0-75.18796962h267.48120323a37.59398526 37.59398526 0 0 1 0 75.18796962z" p-id="4116" fill="#aaaaaa"></path></svg>