<svg width="40" height="40" viewBox="0 0 40 40" fill="none" xmlns="http://www.w3.org/2000/svg">
<path d="M16.5 27V27C16.5 28.6569 17.8433 30 19.5001 30C19.8349 30 20.1651 30 20.4999 30C22.1567 30 23.5 28.6569 23.5 27V27M28.7013 26.303L27.5404 23.5943C27.5138 23.5321 27.5 23.4651 27.5 23.3974V16.5C27.5 12.3579 24.1421 9 20 9V9C15.8579 9 12.5 12.3579 12.5 16.5V23.3974C12.5 23.4651 12.4862 23.5321 12.4596 23.5943L11.2987 26.303C11.1573 26.633 11.3993 27 11.7583 27H28.2417C28.6007 27 28.8427 26.633 28.7013 26.303Z" stroke="white"/>
</svg>
